<svg width="100" height="100" viewBox="0 0 100 100" fill="none" xmlns="http://www.w3.org/2000/svg">
<path d="M0 25C0 11.1929 11.1929 0 25 0H50C77.6142 0 100 22.3858 100 50V75C100 88.8071 88.8071 100 75 100H50C22.3858 100 0 77.6142 0 50V25Z" fill="#7400B8"/>
<path d="M100 55.4752V75C100 88.8071 88.8071 100 75 100H50C24.1159 100 2.82565 80.3315 0.259399 55.1247C11.5621 39.9622 29.6343 30.1429 50 30.1429C70.5222 30.1429 88.7155 40.1137 100 55.4752Z" fill="#5E60CE"/>
<path d="M73.965 6.10672C89.479 14.5951 100 31.0689 100 50V75C100 79.2227 98.953 83.201 97.1045 86.6893C95.4314 86.8944 93.7279 87 92 87C68.804 87 50 67.9721 50 44.5C50 27.5601 59.7942 12.935 73.965 6.10672Z" fill="#5390D9"/>
<path d="M50.0729 6.10352e-05C68.1211 0.0258331 83.9279 9.61409 92.6984 23.9698C88.2748 27.1363 82.855 29 77 29C62.0883 29 50 16.9117 50 2.00001C50 1.32733 50.0246 0.660397 50.0729 6.10352e-05Z" fill="#48BFE3"/>
<path fill-rule="evenodd" clip-rule="evenodd" d="M50 79C66.0163 79 79 66.0163 79 50C79 33.9837 66.0163 21 50 21C33.9837 21 21 33.9837 21 50C21 66.0163 33.9837 79 50 79ZM50 90C72.0914 90 90 72.0914 90 50C90 27.9086 72.0914 10 50 10C27.9086 10 10 27.9086 10 50C10 72.0914 27.9086 90 50 90Z" fill="white"/>
<path fill-rule="evenodd" clip-rule="evenodd" d="M50 63C57.1797 63 63 57.1797 63 50C63 42.8203 57.1797 37 50 37C42.8203 37 37 42.8203 37 50C37 57.1797 42.8203 63 50 63ZM50 70C61.0457 70 70 61.0457 70 50C70 38.9543 61.0457 30 50 30C38.9543 30 30 38.9543 30 50C30 61.0457 38.9543 70 50 70Z" fill="white"/>
</svg>
