<svg width="100" height="100" viewBox="0 0 100 100" fill="none" xmlns="http://www.w3.org/2000/svg">
<path fill-rule="evenodd" clip-rule="evenodd" d="M0 25C0 11.1929 11.1929 0 25 0H50C77.6142 0 100 22.3858 100 50V75C100 88.8071 88.8071 100 75 100H50C22.3858 100 0 77.6142 0 50V25ZM50 79C66.0163 79 79 66.0163 79 50C79 33.9837 66.0163 21 50 21C33.9837 21 21 33.9837 21 50C21 66.0163 33.9837 79 50 79ZM50 90C72.0914 90 90 72.0914 90 50C90 27.9086 72.0914 10 50 10C27.9086 10 10 27.9086 10 50C10 72.0914 27.9086 90 50 90ZM63 50C63 57.1797 57.1797 63 50 63C42.8203 63 37 57.1797 37 50C37 42.8203 42.8203 37 50 37C57.1797 37 63 42.8203 63 50ZM70 50C70 61.0457 61.0457 70 50 70C38.9543 70 30 61.0457 30 50C30 38.9543 38.9543 30 50 30C61.0457 30 70 38.9543 70 50Z" fill="white"/>
</svg>
