<svg width="485" height="75" viewBox="0 0 485 75" fill="none" xmlns="http://www.w3.org/2000/svg">
<path d="M51.336 36.044C51.336 39.908 50.712 43.46 49.464 46.7C48.24 49.916 46.5 52.7 44.244 55.052C41.988 57.38 39.288 59.192 36.144 60.488C33 61.784 29.508 62.432 25.668 62.432C21.852 62.432 18.36 61.784 15.192 60.488C12.048 59.192 9.348 57.38 7.092 55.052C4.86 52.7 3.12 49.916 1.872 46.7C0.624 43.46 0 39.908 0 36.044C0 32.204 0.624 28.664 1.872 25.424C3.12 22.184 4.86 19.4 7.092 17.072C9.348 14.72 12.048 12.896 15.192 11.6C18.36 10.28 21.852 9.62 25.668 9.62C29.508 9.62 33 10.28 36.144 11.6C39.288 12.896 41.988 14.72 44.244 17.072C46.5 19.4 48.24 22.184 49.464 25.424C50.712 28.664 51.336 32.204 51.336 36.044ZM43.488 36.044C43.488 32.972 43.068 30.212 42.228 27.764C41.388 25.316 40.188 23.24 38.628 21.536C37.092 19.832 35.22 18.524 33.012 17.612C30.828 16.7 28.38 16.244 25.668 16.244C22.956 16.244 20.496 16.7 18.288 17.612C16.104 18.524 14.232 19.832 12.672 21.536C11.112 23.24 9.912 25.316 9.072 27.764C8.232 30.212 7.812 32.972 7.812 36.044C7.812 39.14 8.232 41.912 9.072 44.36C9.912 46.784 11.112 48.848 12.672 50.552C14.232 52.256 16.104 53.564 18.288 54.476C20.496 55.364 22.956 55.808 25.668 55.808C28.38 55.808 30.828 55.364 33.012 54.476C35.22 53.564 37.092 52.256 38.628 50.552C40.188 48.848 41.388 46.784 42.228 44.36C43.068 41.912 43.488 39.14 43.488 36.044Z" fill="#3D3D3D"/>
<path d="M65.8418 52.892C66.9938 54.404 68.2298 55.46 69.5498 56.06C70.8938 56.66 72.3938 56.96 74.0498 56.96C77.2658 56.96 79.7497 55.808 81.5017 53.504C83.2777 51.176 84.1657 47.792 84.1657 43.352C84.1657 41.024 83.9617 39.044 83.5537 37.412C83.1697 35.756 82.5938 34.412 81.8258 33.38C81.0818 32.324 80.1577 31.556 79.0537 31.076C77.9498 30.572 76.7018 30.32 75.3098 30.32C73.2698 30.32 71.4938 30.776 69.9818 31.688C68.4938 32.6 67.1138 33.896 65.8418 35.576V52.892ZM65.4818 30.788C66.2497 29.876 67.0658 29.048 67.9297 28.304C68.8177 27.536 69.7657 26.888 70.7738 26.36C71.7818 25.808 72.8498 25.388 73.9778 25.1C75.1298 24.788 76.3538 24.632 77.6497 24.632C79.7377 24.632 81.6217 25.04 83.3018 25.856C85.0058 26.672 86.4578 27.872 87.6578 29.456C88.8577 31.04 89.7818 32.996 90.4298 35.324C91.1018 37.652 91.4378 40.328 91.4378 43.352C91.4378 46.064 91.0658 48.584 90.3218 50.912C89.6018 53.216 88.5577 55.22 87.1898 56.924C85.8457 58.628 84.1898 59.972 82.2217 60.956C80.2777 61.916 78.0817 62.396 75.6338 62.396C73.4498 62.396 71.5778 62.036 70.0178 61.316C68.4578 60.596 67.0658 59.588 65.8418 58.292V74.168H58.8218V25.316H63.0337C64.0177 25.316 64.6298 25.784 64.8698 26.72L65.4818 30.788Z" fill="#3D3D3D"/>
<path d="M123.55 39.536C123.55 38.144 123.346 36.86 122.938 35.684C122.554 34.508 121.978 33.488 121.21 32.624C120.442 31.76 119.506 31.088 118.402 30.608C117.298 30.128 116.026 29.888 114.586 29.888C111.634 29.888 109.306 30.74 107.602 32.444C105.922 34.148 104.854 36.512 104.398 39.536H123.55ZM129.346 56.672C128.482 57.68 127.486 58.556 126.358 59.3C125.23 60.02 124.03 60.608 122.758 61.064C121.486 61.52 120.166 61.856 118.798 62.072C117.454 62.288 116.122 62.396 114.802 62.396C112.282 62.396 109.942 61.976 107.782 61.136C105.646 60.272 103.786 59.024 102.202 57.392C100.642 55.736 99.4177 53.696 98.5297 51.272C97.6657 48.824 97.2337 46.016 97.2337 42.848C97.2337 40.304 97.6298 37.94 98.4218 35.756C99.2138 33.548 100.342 31.628 101.806 29.996C103.294 28.364 105.106 27.08 107.242 26.144C109.378 25.208 111.778 24.74 114.442 24.74C116.674 24.74 118.726 25.112 120.598 25.856C122.494 26.576 124.126 27.632 125.494 29.024C126.862 30.416 127.93 32.132 128.698 34.172C129.49 36.212 129.886 38.54 129.886 41.156C129.886 42.236 129.766 42.968 129.526 43.352C129.286 43.712 128.842 43.892 128.194 43.892H104.218C104.29 46.076 104.602 47.984 105.154 49.616C105.706 51.224 106.462 52.568 107.422 53.648C108.406 54.728 109.57 55.532 110.914 56.06C112.258 56.588 113.758 56.852 115.414 56.852C116.974 56.852 118.318 56.672 119.446 56.312C120.598 55.952 121.582 55.568 122.398 55.16C123.238 54.728 123.934 54.332 124.486 53.972C125.062 53.612 125.566 53.432 125.998 53.432C126.574 53.432 127.018 53.648 127.33 54.08L129.346 56.672Z" fill="#3D3D3D"/>
<path d="M144.019 30.392C144.811 29.552 145.639 28.784 146.503 28.088C147.367 27.392 148.279 26.804 149.239 26.324C150.223 25.82 151.267 25.436 152.371 25.172C153.499 24.884 154.699 24.74 155.971 24.74C157.987 24.74 159.751 25.076 161.263 25.748C162.799 26.42 164.083 27.368 165.115 28.592C166.147 29.792 166.927 31.244 167.455 32.948C167.983 34.652 168.247 36.536 168.247 38.6V61.892H161.191V38.6C161.191 35.984 160.591 33.956 159.391 32.516C158.191 31.052 156.355 30.32 153.883 30.32C152.083 30.32 150.391 30.752 148.807 31.616C147.247 32.456 145.795 33.608 144.451 35.072V61.892H137.431V25.316H141.643C142.627 25.316 143.239 25.784 143.479 26.72L144.019 30.392Z" fill="#3D3D3D"/>
<path d="M229.344 35.648C229.344 39.44 228.684 42.968 227.364 46.232C226.068 49.496 224.232 52.34 221.856 54.764C219.48 57.164 216.612 59.048 213.252 60.416C209.916 61.784 206.208 62.468 202.128 62.468C198.048 62.468 194.328 61.784 190.968 60.416C187.608 59.048 184.728 57.164 182.328 54.764C179.952 52.34 178.104 49.496 176.784 46.232C175.488 42.968 174.84 39.44 174.84 35.648C174.84 31.856 175.488 28.328 176.784 25.064C178.104 21.8 179.952 18.968 182.328 16.568C184.728 14.168 187.608 12.284 190.968 10.916C194.328 9.548 198.048 8.864 202.128 8.864C206.208 8.864 209.916 9.56 213.252 10.952C216.612 12.32 219.48 14.204 221.856 16.604C224.232 19.004 226.068 21.836 227.364 25.1C228.684 28.364 229.344 31.88 229.344 35.648ZM216.888 35.648C216.888 33.056 216.552 30.728 215.88 28.664C215.208 26.576 214.236 24.812 212.964 23.372C211.716 21.932 210.18 20.828 208.356 20.06C206.532 19.292 204.456 18.908 202.128 18.908C199.776 18.908 197.676 19.292 195.828 20.06C194.004 20.828 192.456 21.932 191.184 23.372C189.936 24.812 188.976 26.576 188.304 28.664C187.632 30.728 187.296 33.056 187.296 35.648C187.296 38.264 187.632 40.616 188.304 42.704C188.976 44.768 189.936 46.52 191.184 47.96C192.456 49.4 194.004 50.504 195.828 51.272C197.676 52.016 199.776 52.388 202.128 52.388C204.456 52.388 206.532 52.016 208.356 51.272C210.18 50.504 211.716 49.4 212.964 47.96C214.236 46.52 215.208 44.768 215.88 42.704C216.552 40.616 216.888 38.264 216.888 35.648Z" fill="#3D3D3D"/>
<path d="M270.381 24.56L255.909 61.892H245.757L231.285 24.56H240.573C241.365 24.56 242.025 24.752 242.553 25.136C243.105 25.496 243.477 25.952 243.669 26.504L248.853 43.244C249.309 44.612 249.705 45.944 250.041 47.24C250.401 48.536 250.713 49.832 250.977 51.128C251.505 48.536 252.237 45.908 253.173 43.244L258.573 26.504C258.765 25.952 259.125 25.496 259.653 25.136C260.181 24.752 260.805 24.56 261.525 24.56H270.381Z" fill="#3D3D3D"/>
<path d="M295.976 38.744C295.976 37.856 295.856 36.992 295.616 36.152C295.4 35.312 295.028 34.568 294.5 33.92C293.996 33.248 293.324 32.708 292.484 32.3C291.644 31.892 290.624 31.688 289.424 31.688C287.312 31.688 285.656 32.3 284.456 33.524C283.256 34.724 282.464 36.464 282.08 38.744H295.976ZM281.936 45.224C282.296 48.344 283.244 50.612 284.78 52.028C286.316 53.42 288.296 54.116 290.72 54.116C292.016 54.116 293.132 53.96 294.068 53.648C295.004 53.336 295.832 52.988 296.552 52.604C297.296 52.22 297.968 51.872 298.568 51.56C299.192 51.248 299.84 51.092 300.512 51.092C301.4 51.092 302.072 51.416 302.528 52.064L305.768 56.06C304.616 57.38 303.368 58.46 302.024 59.3C300.704 60.116 299.336 60.764 297.92 61.244C296.528 61.7 295.124 62.012 293.708 62.18C292.316 62.372 290.984 62.468 289.712 62.468C287.096 62.468 284.636 62.048 282.332 61.208C280.052 60.344 278.048 59.072 276.32 57.392C274.616 55.712 273.26 53.624 272.252 51.128C271.268 48.632 270.776 45.728 270.776 42.416C270.776 39.92 271.196 37.556 272.036 35.324C272.9 33.092 274.124 31.136 275.708 29.456C277.316 27.776 279.248 26.444 281.504 25.46C283.784 24.476 286.352 23.984 289.208 23.984C291.68 23.984 293.936 24.368 295.976 25.136C298.04 25.904 299.804 27.02 301.268 28.484C302.756 29.948 303.908 31.748 304.724 33.884C305.564 35.996 305.984 38.396 305.984 41.084C305.984 41.924 305.948 42.608 305.876 43.136C305.804 43.664 305.672 44.084 305.48 44.396C305.288 44.708 305.024 44.924 304.688 45.044C304.376 45.164 303.968 45.224 303.464 45.224H281.936Z" fill="#3D3D3D"/>
<path d="M322.008 30.32C323.16 28.304 324.48 26.72 325.968 25.568C327.48 24.416 329.208 23.84 331.152 23.84C332.832 23.84 334.2 24.236 335.256 25.028L334.536 33.236C334.416 33.764 334.212 34.124 333.924 34.316C333.66 34.508 333.288 34.604 332.808 34.604C332.616 34.604 332.364 34.592 332.052 34.568C331.74 34.544 331.416 34.52 331.08 34.496C330.744 34.448 330.396 34.412 330.036 34.388C329.7 34.34 329.388 34.316 329.1 34.316C327.468 34.316 326.16 34.748 325.176 35.612C324.216 36.476 323.4 37.676 322.728 39.212V61.892H311.568V24.56H318.192C318.744 24.56 319.2 24.608 319.56 24.704C319.944 24.8 320.256 24.956 320.496 25.172C320.76 25.364 320.952 25.628 321.072 25.964C321.216 26.3 321.336 26.708 321.432 27.188L322.008 30.32Z" fill="#3D3D3D"/>
<path d="M350.22 8V61.892H339.06V8H350.22Z" fill="#3D3D3D"/>
<path d="M377.023 46.7C374.792 46.796 372.956 46.988 371.516 47.276C370.076 47.564 368.935 47.924 368.095 48.356C367.255 48.788 366.668 49.28 366.332 49.832C366.02 50.384 365.863 50.984 365.863 51.632C365.863 52.904 366.211 53.804 366.908 54.332C367.604 54.836 368.624 55.088 369.967 55.088C371.408 55.088 372.668 54.836 373.747 54.332C374.827 53.828 375.919 53.012 377.023 51.884V46.7ZM356.935 29.744C359.191 27.752 361.688 26.276 364.423 25.316C367.184 24.332 370.135 23.84 373.28 23.84C375.536 23.84 377.564 24.212 379.363 24.956C381.188 25.676 382.724 26.696 383.971 28.016C385.243 29.312 386.216 30.86 386.888 32.66C387.56 34.46 387.896 36.428 387.896 38.564V61.892H382.784C381.728 61.892 380.923 61.748 380.371 61.46C379.843 61.172 379.399 60.572 379.039 59.66L378.247 57.608C377.311 58.4 376.412 59.096 375.548 59.696C374.684 60.296 373.784 60.812 372.848 61.244C371.936 61.652 370.952 61.952 369.896 62.144C368.863 62.36 367.712 62.468 366.44 62.468C364.736 62.468 363.188 62.252 361.796 61.82C360.404 61.364 359.216 60.704 358.232 59.84C357.272 58.976 356.528 57.908 356 56.636C355.471 55.34 355.207 53.852 355.207 52.172C355.207 50.828 355.544 49.472 356.216 48.104C356.888 46.712 358.051 45.452 359.707 44.324C361.363 43.172 363.595 42.212 366.404 41.444C369.212 40.676 372.751 40.244 377.023 40.148V38.564C377.023 36.38 376.567 34.808 375.655 33.848C374.767 32.864 373.496 32.372 371.84 32.372C370.52 32.372 369.439 32.516 368.599 32.804C367.759 33.092 367.004 33.416 366.332 33.776C365.684 34.136 365.047 34.46 364.423 34.748C363.799 35.036 363.056 35.18 362.191 35.18C361.423 35.18 360.776 34.988 360.247 34.604C359.719 34.22 359.288 33.764 358.952 33.236L356.935 29.744Z" fill="#3D3D3D"/>
<path d="M429.294 24.56L409.35 71.576C409.014 72.32 408.606 72.86 408.126 73.196C407.646 73.556 406.878 73.736 405.822 73.736H397.47L404.67 58.616L389.766 24.56H399.63C400.494 24.56 401.154 24.752 401.61 25.136C402.09 25.52 402.438 25.976 402.654 26.504L408.774 42.596C409.35 44.06 409.818 45.56 410.178 47.096C410.442 46.328 410.706 45.56 410.97 44.792C411.234 44.024 411.51 43.268 411.798 42.524L417.342 26.504C417.558 25.952 417.942 25.496 418.494 25.136C419.046 24.752 419.646 24.56 420.294 24.56H429.294Z" fill="#3D3D3D"/>
<g clip-path="url(#clip0)">
<path d="M436.294 12C436.294 5.37258 441.666 0 448.294 0H460.294C473.549 0 484.294 10.7452 484.294 24V36C484.294 42.6274 478.921 48 472.294 48H460.294C447.039 48 436.294 37.2548 436.294 24V12Z" fill="#7400B8"/>
<path d="M484.294 26.6281V36C484.294 42.6274 478.921 48 472.294 48H460.294C447.869 48 437.65 38.5591 436.418 26.4598C441.844 19.1818 450.518 14.4686 460.294 14.4686C470.144 14.4686 478.877 19.2546 484.294 26.6281Z" fill="#5E60CE"/>
<path d="M471.797 2.93124C479.244 7.00565 484.294 14.9131 484.294 24V36C484.294 38.0269 483.791 39.9365 482.904 41.6109C482.101 41.7093 481.283 41.76 480.454 41.76C469.32 41.76 460.294 32.6266 460.294 21.36C460.294 13.2289 464.995 6.20881 471.797 2.93124Z" fill="#5390D9"/>
<path d="M460.329 3.05176e-05C468.992 0.0124011 476.579 4.61476 480.789 11.5055C478.666 13.0254 476.064 13.92 473.254 13.92C466.096 13.92 460.294 8.11762 460.294 0.960005C460.294 0.637119 460.306 0.316992 460.329 3.05176e-05Z" fill="#48BFE3"/>
<path fill-rule="evenodd" clip-rule="evenodd" d="M460.294 37.92C467.982 37.92 474.214 31.6878 474.214 24C474.214 16.3122 467.982 10.08 460.294 10.08C452.606 10.08 446.374 16.3122 446.374 24C446.374 31.6878 452.606 37.92 460.294 37.92ZM460.294 43.2C470.898 43.2 479.494 34.6039 479.494 24C479.494 13.3961 470.898 4.79999 460.294 4.79999C449.69 4.79999 441.094 13.3961 441.094 24C441.094 34.6039 449.69 43.2 460.294 43.2Z" fill="white"/>
<path fill-rule="evenodd" clip-rule="evenodd" d="M460.294 30.24C463.74 30.24 466.534 27.4463 466.534 24C466.534 20.5537 463.74 17.76 460.294 17.76C456.848 17.76 454.054 20.5537 454.054 24C454.054 27.4463 456.848 30.24 460.294 30.24ZM460.294 33.6C465.596 33.6 469.894 29.3019 469.894 24C469.894 18.6981 465.596 14.4 460.294 14.4C454.992 14.4 450.694 18.6981 450.694 24C450.694 29.3019 454.992 33.6 460.294 33.6Z" fill="white"/>
</g>
<defs>
<clipPath id="clip0">
<rect width="48" height="48" fill="white" transform="translate(436.294)"/>
</clipPath>
</defs>
</svg>
