<svg version="1" xmlns="http://www.w3.org/2000/svg" width="933.333" height="933.333" viewBox="0 0 700.000000 700.000000"><path d="M156 1c-2.5.4-6.3 1-8.5 1.3-14.3 2.1-30.9 6.9-43.3 12.8-3.5 1.6-6.5 2.9-6.8 2.9-1.5 0-20.2 11.7-27.4 17.1-29.6 22.3-52.2 54.6-62.6 89.5-2.7 9.1-5.1 20.6-6.2 29.9-1 8.3-.9 216.1.1 226.1.4 4.4 1 9.2 1.2 10.5.2 1.3.6 4.6.9 7.4 2.1 18.4 10.8 54.4 16.5 68 .5 1.1 2.6 6.5 4.6 12 6.5 17.2 21.3 46.2 31.4 61.5 27.1 41.1 60.5 74.7 100.8 101.6 7.7 5.2 14.5 9.4 14.9 9.4.4 0 1.5.6 2.3 1.4 2.9 2.5 30.4 16.1 43.1 21.3 17.3 7.1 41.6 14.8 56.4 17.9 5.7 1.2 17.6 3.4 21.1 3.9 2.2.4 4.7.8 5.5 1 .8.2 4.7.7 8.5 1 3.9.4 8.4.9 10 1.3 1.7.3 51.8.7 111.5.8 103.5.3 109.1.2 121-1.6 43.4-6.8 80.8-28.1 109.1-62 19.1-22.8 33.3-54.3 37.5-82.7.3-2.6.9-5.7 1.2-6.8 1-3.1 1.1-214.9.2-224-.4-4.4-1.1-11.2-1.5-15-.4-3.9-.8-7.2-1-7.5-.2-.3-.6-3-1-6-1.7-13.7-8.7-41.4-15.3-60.2C640.4 119.7 540.7 32.1 422.5 7.5c-4.4-.9-8.9-1.9-10-2.1-1.1-.2-4.5-.7-7.5-1-3-.3-5.8-.8-6.1-.9-.3-.2-3.5-.7-7.1-1-3.5-.4-7.8-.9-9.4-1.2C377.9.4 161.1.1 156 1zm223.1 70.4c70.5 8.2 130.9 38.9 178.4 90.7 7.8 8.6 10 11.2 17.2 21.1 12.7 17.3 17.9 25.9 26.8 44.2 10.1 20.7 19.5 47.4 21.9 61.7.3 1.9 1.2 7 2.1 11.3.8 4.4 1.8 10 2.1 12.5.2 2.5.9 7.7 1.3 11.6 1.4 11.3.6 49.5-1.3 62.5-13.8 95.1-70 172.8-155.5 214.9-23.2 11.4-55.4 21.5-78.8 24.7-2.6.3-5.7.8-6.8 1-9.3 1.9-50.2 2.6-64 1.1-9.5-1-22.7-3-29-4.4-3.2-.7-9.8-2.2-12.1-2.7-5.6-1.2-24.1-7.3-34.4-11.3-77-30.2-137.8-95.1-163.5-174.3-3.1-9.9-6.3-22-7.9-30-4.2-21.9-5.1-31.6-5.1-56 0-17.3.6-29.3 1.9-37 .3-1.4.7-4.3 1-6.5.2-2.2.9-6 1.5-8.5.5-2.5 1.3-6.1 1.6-8 1.6-9.5 8.9-33 14.4-46.5 3.2-7.8 13.3-27.9 18-35.9 31.4-53.1 80.3-95 137.3-117.7 24.6-9.8 52.9-16.6 76.3-18.4 5-.4 9.2-.9 9.4-1.1.5-.5 42 .4 47.2 1z"/><path d="M334.9 147.3c-.2.3-3.3.7-6.9 1-16.9 1.6-37.8 6.8-54.5 13.5-8.5 3.5-28.4 14-35.6 18.9-8.5 5.7-9 6.1-19.8 15.2-33.8 28.7-57.3 68.3-66.5 111.8-3.3 15.9-4 22.9-4.1 41.8 0 16.2.9 27.4 2.9 37.5 8.4 41.4 26.3 75.7 54.8 105 29.6 30.6 71.4 52.1 113.3 58.5 1.7.3 4.8.8 7 1.1 6.8 1.1 40.7 1.3 47 .3 3.3-.5 7.5-1.2 9.4-1.4 1.9-.3 4.3-.7 5.5-1 1.2-.3 3.2-.7 4.6-.9 11.1-1.8 32.4-9.3 47.5-16.6 19.7-9.6 39.2-23.6 55.2-39.8 8.2-8.4 21.7-25 24.9-30.7.6-1.1 3.5-5.8 6.3-10.5 9.7-16.1 19-40.3 22.6-58.5 1.1-5.9 2.6-14.7 3.2-20 1-7.6 1-37.3.1-44.5-.4-3-1-7.5-1.3-10-3.2-23.9-15.9-56.5-30.8-79.2-32.9-49.9-84.6-82.2-144.7-90.3-5.5-.8-39.4-1.7-40.1-1.2zm34.8 64c1.1.3 4.3.9 7 1.2 2.6.4 10.1 2.5 16.6 4.6 50.7 16.5 86.5 58.8 95.2 112.4 1.2 7.7 1.4 35 .2 40.5-.3 1.4-.8 3.8-1 5.5-1.3 8.7-6 22.9-11.2 34-16.4 35-47.1 62-84 73.8-9 2.8-13 3.7-23.5 5.4-6.2 1-31.2 1-38.4 0-61.3-8.5-110.6-57.9-119.2-119.7-1.4-10.6-1.2-34.4.5-42.8 7.4-36.9 25.8-66.7 54.3-88.2 6.6-5 21.9-14.4 23.8-14.5.3-.1 1.4-.6 2.5-1.2 6.8-3.7 28.3-9.8 38.5-10.9 3-.4 5.7-.8 5.9-1 .6-.6 30.1.3 32.8.9z"/><path d="M333.1 260.6c-34 7.2-60.1 30.6-70 62.7-3 10-3.6 14.8-3.5 29.2.2 13.7 2.3 23.9 7.6 35.3 8.9 19.3 26.9 37 46.5 45.6 21.6 9.4 48 9.8 70 1 17-6.8 31.4-18.4 41.7-33.7 5.7-8.4 8.9-15.4 12.3-26.6 2.3-7.7 2.6-10.3 2.6-24.1 0-14-.2-16.4-2.7-24.5-7.6-25-22.7-43.6-45.6-56.2-15.9-8.7-41.2-12.5-58.9-8.7z"/></svg>