<svg width="678" height="440" viewBox="0 0 678 440" fill="none" xmlns="http://www.w3.org/2000/svg">
<rect x="110" y="46" width="196" height="334" rx="21" fill="#5A1D98"/>
<rect x="110" y="46" width="196" height="334" rx="21" fill="black" fill-opacity="0.58"/>
<ellipse cx="154" cy="384.659" rx="27.7358" ry="8.34137" fill="black" fill-opacity="0.2"/>
<path fill-rule="evenodd" clip-rule="evenodd" d="M109.648 325.287C121.638 351.358 136.454 370.756 154 370.756C171.423 370.756 186.156 351.628 198.101 325.83C197.977 325.432 197.909 324.994 197.909 324.52C197.91 308.163 198.57 279.626 202.643 259.402C206.677 239.374 216.968 213.051 223.198 198.128C223.96 196.302 225.567 195.519 227.073 195.668C223.856 192.443 219.365 190.424 214.325 190.424H93.675C88.6443 190.424 84.1603 192.436 80.9445 195.651C82.3279 195.664 83.7265 196.463 84.4219 198.128C90.6519 213.051 100.942 239.374 104.976 259.402C109.049 279.626 109.71 308.163 109.711 324.52C109.711 324.787 109.689 325.043 109.648 325.287ZM75.8785 209.348C76.169 206.839 76.4729 204.473 76.7753 202.284C76.011 204.485 75.6806 206.875 75.8785 209.348ZM231.922 210.942C231.513 207.252 231.07 203.844 230.638 200.816C232.016 203.854 232.538 207.335 231.922 210.942Z" fill="#EFEFEF"/>
<path d="M75.1908 277.015C66.8589 252.584 70.4148 217.145 73.1375 198.837C73.7023 195.04 78.5091 194.475 79.9876 198.017C85.9364 212.265 95.7627 237.401 99.6144 256.525C103.504 275.836 104.134 303.085 104.135 318.705C104.135 322.561 99.3958 323.925 97.3722 320.645C90.5253 309.55 80.1538 291.568 75.1908 277.015Z" fill="#EFEFEF"/>
<path d="M232.432 277.015C240.764 252.584 237.208 217.145 234.485 198.837C233.92 195.04 229.113 194.475 227.635 198.017C221.686 212.265 211.86 237.401 208.008 256.525C204.119 275.836 203.488 303.085 203.487 318.705C203.487 322.561 208.227 323.925 210.25 320.645C217.097 309.55 227.469 291.568 232.432 277.015Z" fill="#EFEFEF"/>
<path d="M153.208 181.685C186.408 181.685 234.83 181.685 234.83 157.853C234.83 134.02 218.981 80 153.208 80C87.4339 80 71.5849 134.02 71.5849 157.853C71.5849 181.685 120.007 181.685 153.208 181.685Z" fill="#EFEFEF"/>
<path d="M154 159.442C182.043 159.442 222.943 159.442 222.943 143.429C222.943 127.417 209.556 91.1218 154 91.1218C98.4437 91.1218 85.0566 127.417 85.0566 143.429C85.0566 159.442 125.957 159.442 154 159.442Z" fill="#292F39"/>
<path fill-rule="evenodd" clip-rule="evenodd" d="M113.585 133.97C117.719 128.681 124.15 125.282 131.373 125.282C138.595 125.282 145.026 128.681 149.161 133.97C148.524 124.678 140.804 117.338 131.373 117.338C121.942 117.338 114.221 124.678 113.585 133.97Z" fill="#42A1D7"/>
<path fill-rule="evenodd" clip-rule="evenodd" d="M157.618 133.97C161.752 128.681 168.183 125.282 175.406 125.282C182.628 125.282 189.059 128.681 193.193 133.97C192.557 124.678 184.836 117.338 175.405 117.338C165.975 117.338 158.254 124.678 157.618 133.97Z" fill="#42A1D7"/>
<rect x="316" y="88" width="133" height="41" rx="15" fill="#00497E"/>
<path d="M329.823 103.336L332.562 111.07L335.287 103.336H338.173V114H335.968V111.085L336.188 106.053L333.31 114H331.801L328.93 106.061L329.149 111.085V114H326.952V103.336H329.823ZM339.623 109.964C339.623 109.178 339.774 108.478 340.077 107.862C340.38 107.247 340.814 106.771 341.381 106.434C341.952 106.097 342.614 105.929 343.366 105.929C344.435 105.929 345.307 106.256 345.98 106.91C346.659 107.564 347.038 108.453 347.116 109.576L347.13 110.118C347.13 111.334 346.791 112.311 346.112 113.048C345.434 113.78 344.523 114.146 343.38 114.146C342.238 114.146 341.325 113.78 340.641 113.048C339.962 112.315 339.623 111.319 339.623 110.06V109.964ZM341.74 110.118C341.74 110.87 341.881 111.446 342.165 111.847C342.448 112.242 342.853 112.44 343.38 112.44C343.893 112.44 344.293 112.245 344.582 111.854C344.87 111.458 345.014 110.829 345.014 109.964C345.014 109.227 344.87 108.656 344.582 108.25C344.293 107.845 343.888 107.643 343.366 107.643C342.848 107.643 342.448 107.845 342.165 108.25C341.881 108.651 341.74 109.273 341.74 110.118ZM348.104 109.964C348.104 109.178 348.256 108.478 348.559 107.862C348.861 107.247 349.296 106.771 349.862 106.434C350.434 106.097 351.095 105.929 351.847 105.929C352.917 105.929 353.788 106.256 354.462 106.91C355.141 107.564 355.519 108.453 355.597 109.576L355.612 110.118C355.612 111.334 355.272 112.311 354.594 113.048C353.915 113.78 353.004 114.146 351.862 114.146C350.719 114.146 349.806 113.78 349.123 113.048C348.444 112.315 348.104 111.319 348.104 110.06V109.964ZM350.221 110.118C350.221 110.87 350.363 111.446 350.646 111.847C350.929 112.242 351.334 112.44 351.862 112.44C352.375 112.44 352.775 112.245 353.063 111.854C353.351 111.458 353.495 110.829 353.495 109.964C353.495 109.227 353.351 108.656 353.063 108.25C352.775 107.845 352.37 107.643 351.847 107.643C351.33 107.643 350.929 107.845 350.646 108.25C350.363 108.651 350.221 109.273 350.221 110.118ZM358.864 106.075L358.93 106.991C359.496 106.283 360.255 105.929 361.208 105.929C362.047 105.929 362.672 106.175 363.083 106.668C363.493 107.162 363.703 107.899 363.712 108.88V114H361.596V108.932C361.596 108.482 361.498 108.158 361.303 107.958C361.107 107.752 360.783 107.65 360.329 107.65C359.733 107.65 359.286 107.904 358.988 108.412V114H356.872V106.075H358.864ZM369.616 111.81C369.616 111.551 369.486 111.349 369.228 111.202C368.974 111.051 368.563 110.917 367.997 110.799C366.112 110.404 365.17 109.603 365.17 108.397C365.17 107.694 365.46 107.108 366.042 106.639C366.627 106.166 367.392 105.929 368.334 105.929C369.34 105.929 370.143 106.166 370.744 106.639C371.349 107.113 371.652 107.728 371.652 108.485H369.535C369.535 108.182 369.438 107.933 369.242 107.738C369.047 107.538 368.742 107.438 368.327 107.438C367.97 107.438 367.694 107.518 367.499 107.679C367.304 107.84 367.206 108.045 367.206 108.294C367.206 108.529 367.316 108.719 367.536 108.866C367.76 109.007 368.136 109.132 368.664 109.239C369.191 109.342 369.635 109.459 369.997 109.591C371.115 110.001 371.674 110.711 371.674 111.722C371.674 112.445 371.364 113.031 370.744 113.48C370.124 113.924 369.323 114.146 368.341 114.146C367.677 114.146 367.086 114.029 366.569 113.795C366.056 113.556 365.653 113.231 365.36 112.821C365.067 112.406 364.921 111.959 364.921 111.48H366.928C366.947 111.856 367.086 112.145 367.345 112.345C367.604 112.545 367.951 112.645 368.385 112.645C368.791 112.645 369.096 112.569 369.301 112.418C369.511 112.262 369.616 112.059 369.616 111.81ZM375.109 106.939C375.67 106.266 376.376 105.929 377.226 105.929C378.944 105.929 379.816 106.927 379.84 108.924V114H377.724V108.983C377.724 108.529 377.626 108.194 377.431 107.979C377.235 107.76 376.911 107.65 376.457 107.65C375.836 107.65 375.387 107.889 375.109 108.368V114H372.992V102.75H375.109V106.939ZM383.671 114H381.547V106.075H383.671V114ZM381.422 104.024C381.422 103.707 381.527 103.446 381.737 103.241C381.952 103.036 382.243 102.933 382.609 102.933C382.97 102.933 383.258 103.036 383.473 103.241C383.688 103.446 383.795 103.707 383.795 104.024C383.795 104.347 383.686 104.61 383.466 104.815C383.251 105.021 382.965 105.123 382.609 105.123C382.252 105.123 381.964 105.021 381.745 104.815C381.53 104.61 381.422 104.347 381.422 104.024ZM387.37 106.075L387.436 106.991C388.002 106.283 388.761 105.929 389.713 105.929C390.553 105.929 391.178 106.175 391.588 106.668C391.999 107.162 392.208 107.899 392.218 108.88V114H390.102V108.932C390.102 108.482 390.004 108.158 389.809 107.958C389.613 107.752 389.289 107.65 388.834 107.65C388.239 107.65 387.792 107.904 387.494 108.412V114H385.377V106.075H387.37ZM397.477 114.146C396.315 114.146 395.368 113.79 394.635 113.077C393.908 112.364 393.544 111.415 393.544 110.228V110.023C393.544 109.227 393.698 108.517 394.005 107.892C394.313 107.262 394.748 106.778 395.309 106.441C395.875 106.1 396.52 105.929 397.243 105.929C398.327 105.929 399.179 106.271 399.799 106.954C400.424 107.638 400.736 108.607 400.736 109.862V110.726H395.69C395.758 111.244 395.963 111.659 396.305 111.971C396.652 112.284 397.089 112.44 397.616 112.44C398.432 112.44 399.069 112.145 399.528 111.554L400.568 112.718C400.25 113.167 399.821 113.519 399.279 113.773C398.737 114.022 398.136 114.146 397.477 114.146ZM397.235 107.643C396.815 107.643 396.474 107.784 396.21 108.067C395.951 108.351 395.785 108.756 395.712 109.283H398.656V109.115C398.646 108.646 398.52 108.285 398.275 108.031C398.031 107.772 397.685 107.643 397.235 107.643ZM402.047 112.96C402.047 112.623 402.16 112.35 402.384 112.14C402.614 111.93 402.899 111.825 403.241 111.825C403.588 111.825 403.874 111.93 404.098 112.14C404.328 112.35 404.442 112.623 404.442 112.96C404.442 113.292 404.33 113.563 404.105 113.773C403.881 113.978 403.593 114.081 403.241 114.081C402.895 114.081 402.609 113.978 402.384 113.773C402.16 113.563 402.047 113.292 402.047 112.96ZM402.047 106.961C402.047 106.625 402.16 106.351 402.384 106.141C402.614 105.931 402.899 105.826 403.241 105.826C403.588 105.826 403.874 105.931 404.098 106.141C404.328 106.351 404.442 106.625 404.442 106.961C404.442 107.293 404.33 107.564 404.105 107.774C403.881 107.979 403.593 108.082 403.241 108.082C402.895 108.082 402.609 107.979 402.384 107.774C402.16 107.564 402.047 107.293 402.047 106.961ZM418.52 114H417.106V109.071H411.73V114H410.324V103.336H411.73V107.921H417.106V103.336H418.52V114ZM424.093 114.146C423.019 114.146 422.145 113.795 421.471 113.092C420.797 112.384 420.46 111.439 420.46 110.257V110.008C420.46 109.222 420.609 108.521 420.907 107.906C421.21 107.286 421.63 106.803 422.167 106.456C422.709 106.104 423.295 105.929 423.925 105.929C424.955 105.929 425.756 106.268 426.327 106.947C426.898 107.625 427.184 108.597 427.184 109.862V110.426H421.815C421.835 111.207 422.062 111.839 422.497 112.323C422.936 112.801 423.493 113.041 424.167 113.041C424.645 113.041 425.05 112.943 425.382 112.748C425.714 112.552 426.005 112.293 426.254 111.971L427.082 112.616C426.417 113.636 425.421 114.146 424.093 114.146ZM423.925 107.042C423.378 107.042 422.919 107.242 422.548 107.643C422.177 108.038 421.947 108.595 421.859 109.312H425.829V109.21C425.79 108.521 425.604 107.989 425.272 107.613C424.94 107.232 424.491 107.042 423.925 107.042ZM431.249 112.015L433.095 106.075H434.545L431.359 115.223C430.866 116.542 430.082 117.201 429.008 117.201L428.751 117.179L428.246 117.083V115.985L428.612 116.014C429.071 116.014 429.428 115.921 429.682 115.736C429.94 115.55 430.153 115.211 430.319 114.718L430.619 113.912L427.792 106.075H429.271L431.249 112.015ZM437.277 110.99H436.054L435.958 103.336H437.379L437.277 110.99ZM435.907 113.319C435.907 113.099 435.973 112.916 436.105 112.77C436.242 112.618 436.442 112.542 436.706 112.542C436.969 112.542 437.169 112.618 437.306 112.77C437.443 112.916 437.511 113.099 437.511 113.319C437.511 113.539 437.443 113.722 437.306 113.868C437.169 114.01 436.969 114.081 436.706 114.081C436.442 114.081 436.242 114.01 436.105 113.868C435.973 113.722 435.907 113.539 435.907 113.319Z" fill="white"/>
<rect x="316" y="139" width="173" height="41" rx="15" fill="#00497E"/>
<path d="M329.823 154.336L332.562 162.07L335.287 154.336H338.173V165H335.968V162.085L336.188 157.053L333.31 165H331.801L328.93 157.061L329.149 162.085V165H326.952V154.336H329.823ZM339.623 160.964C339.623 160.178 339.774 159.478 340.077 158.862C340.38 158.247 340.814 157.771 341.381 157.434C341.952 157.097 342.614 156.929 343.366 156.929C344.435 156.929 345.307 157.256 345.98 157.91C346.659 158.564 347.038 159.453 347.116 160.576L347.13 161.118C347.13 162.334 346.791 163.311 346.112 164.048C345.434 164.78 344.523 165.146 343.38 165.146C342.238 165.146 341.325 164.78 340.641 164.048C339.962 163.315 339.623 162.319 339.623 161.06V160.964ZM341.74 161.118C341.74 161.87 341.881 162.446 342.165 162.847C342.448 163.242 342.853 163.44 343.38 163.44C343.893 163.44 344.293 163.245 344.582 162.854C344.87 162.458 345.014 161.829 345.014 160.964C345.014 160.227 344.87 159.656 344.582 159.25C344.293 158.845 343.888 158.643 343.366 158.643C342.848 158.643 342.448 158.845 342.165 159.25C341.881 159.651 341.74 160.273 341.74 161.118ZM348.104 160.964C348.104 160.178 348.256 159.478 348.559 158.862C348.861 158.247 349.296 157.771 349.862 157.434C350.434 157.097 351.095 156.929 351.847 156.929C352.917 156.929 353.788 157.256 354.462 157.91C355.141 158.564 355.519 159.453 355.597 160.576L355.612 161.118C355.612 162.334 355.272 163.311 354.594 164.048C353.915 164.78 353.004 165.146 351.862 165.146C350.719 165.146 349.806 164.78 349.123 164.048C348.444 163.315 348.104 162.319 348.104 161.06V160.964ZM350.221 161.118C350.221 161.87 350.363 162.446 350.646 162.847C350.929 163.242 351.334 163.44 351.862 163.44C352.375 163.44 352.775 163.245 353.063 162.854C353.351 162.458 353.495 161.829 353.495 160.964C353.495 160.227 353.351 159.656 353.063 159.25C352.775 158.845 352.37 158.643 351.847 158.643C351.33 158.643 350.929 158.845 350.646 159.25C350.363 159.651 350.221 160.273 350.221 161.118ZM358.864 157.075L358.93 157.991C359.496 157.283 360.255 156.929 361.208 156.929C362.047 156.929 362.672 157.175 363.083 157.668C363.493 158.162 363.703 158.899 363.712 159.88V165H361.596V159.932C361.596 159.482 361.498 159.158 361.303 158.958C361.107 158.752 360.783 158.65 360.329 158.65C359.733 158.65 359.286 158.904 358.988 159.412V165H356.872V157.075H358.864ZM369.616 162.81C369.616 162.551 369.486 162.349 369.228 162.202C368.974 162.051 368.563 161.917 367.997 161.799C366.112 161.404 365.17 160.603 365.17 159.397C365.17 158.694 365.46 158.108 366.042 157.639C366.627 157.166 367.392 156.929 368.334 156.929C369.34 156.929 370.143 157.166 370.744 157.639C371.349 158.113 371.652 158.728 371.652 159.485H369.535C369.535 159.182 369.438 158.933 369.242 158.738C369.047 158.538 368.742 158.438 368.327 158.438C367.97 158.438 367.694 158.518 367.499 158.679C367.304 158.84 367.206 159.045 367.206 159.294C367.206 159.529 367.316 159.719 367.536 159.866C367.76 160.007 368.136 160.132 368.664 160.239C369.191 160.342 369.635 160.459 369.997 160.591C371.115 161.001 371.674 161.711 371.674 162.722C371.674 163.445 371.364 164.031 370.744 164.48C370.124 164.924 369.323 165.146 368.341 165.146C367.677 165.146 367.086 165.029 366.569 164.795C366.056 164.556 365.653 164.231 365.36 163.821C365.067 163.406 364.921 162.959 364.921 162.48H366.928C366.947 162.856 367.086 163.145 367.345 163.345C367.604 163.545 367.951 163.645 368.385 163.645C368.791 163.645 369.096 163.569 369.301 163.418C369.511 163.262 369.616 163.059 369.616 162.81ZM375.109 157.939C375.67 157.266 376.376 156.929 377.226 156.929C378.944 156.929 379.816 157.927 379.84 159.924V165H377.724V159.983C377.724 159.529 377.626 159.194 377.431 158.979C377.235 158.76 376.911 158.65 376.457 158.65C375.836 158.65 375.387 158.889 375.109 159.368V165H372.992V153.75H375.109V157.939ZM383.671 165H381.547V157.075H383.671V165ZM381.422 155.024C381.422 154.707 381.527 154.446 381.737 154.241C381.952 154.036 382.243 153.933 382.609 153.933C382.97 153.933 383.258 154.036 383.473 154.241C383.688 154.446 383.795 154.707 383.795 155.024C383.795 155.347 383.686 155.61 383.466 155.815C383.251 156.021 382.965 156.123 382.609 156.123C382.252 156.123 381.964 156.021 381.745 155.815C381.53 155.61 381.422 155.347 381.422 155.024ZM387.37 157.075L387.436 157.991C388.002 157.283 388.761 156.929 389.713 156.929C390.553 156.929 391.178 157.175 391.588 157.668C391.999 158.162 392.208 158.899 392.218 159.88V165H390.102V159.932C390.102 159.482 390.004 159.158 389.809 158.958C389.613 158.752 389.289 158.65 388.834 158.65C388.239 158.65 387.792 158.904 387.494 159.412V165H385.377V157.075H387.37ZM397.477 165.146C396.315 165.146 395.368 164.79 394.635 164.077C393.908 163.364 393.544 162.415 393.544 161.228V161.023C393.544 160.227 393.698 159.517 394.005 158.892C394.313 158.262 394.748 157.778 395.309 157.441C395.875 157.1 396.52 156.929 397.243 156.929C398.327 156.929 399.179 157.271 399.799 157.954C400.424 158.638 400.736 159.607 400.736 160.862V161.726H395.69C395.758 162.244 395.963 162.659 396.305 162.971C396.652 163.284 397.089 163.44 397.616 163.44C398.432 163.44 399.069 163.145 399.528 162.554L400.568 163.718C400.25 164.167 399.821 164.519 399.279 164.773C398.737 165.022 398.136 165.146 397.477 165.146ZM397.235 158.643C396.815 158.643 396.474 158.784 396.21 159.067C395.951 159.351 395.785 159.756 395.712 160.283H398.656V160.115C398.646 159.646 398.52 159.285 398.275 159.031C398.031 158.772 397.685 158.643 397.235 158.643ZM402.047 163.96C402.047 163.623 402.16 163.35 402.384 163.14C402.614 162.93 402.899 162.825 403.241 162.825C403.588 162.825 403.874 162.93 404.098 163.14C404.328 163.35 404.442 163.623 404.442 163.96C404.442 164.292 404.33 164.563 404.105 164.773C403.881 164.978 403.593 165.081 403.241 165.081C402.895 165.081 402.609 164.978 402.384 164.773C402.16 164.563 402.047 164.292 402.047 163.96ZM402.047 157.961C402.047 157.625 402.16 157.351 402.384 157.141C402.614 156.931 402.899 156.826 403.241 156.826C403.588 156.826 403.874 156.931 404.098 157.141C404.328 157.351 404.442 157.625 404.442 157.961C404.442 158.293 404.33 158.564 404.105 158.774C403.881 158.979 403.593 159.082 403.241 159.082C402.895 159.082 402.609 158.979 402.384 158.774C402.16 158.564 402.047 158.293 402.047 157.961ZM411.627 161.99H410.404L410.309 154.336H411.73L411.627 161.99ZM410.258 164.319C410.258 164.099 410.324 163.916 410.456 163.77C410.592 163.618 410.792 163.542 411.056 163.542C411.32 163.542 411.52 163.618 411.657 163.77C411.793 163.916 411.862 164.099 411.862 164.319C411.862 164.539 411.793 164.722 411.657 164.868C411.52 165.01 411.32 165.081 411.056 165.081C410.792 165.081 410.592 165.01 410.456 164.868C410.324 164.722 410.258 164.539 410.258 164.319ZM414.645 165V158.123H413.393V157.075H414.645V156.262C414.645 155.413 414.872 154.756 415.326 154.292C415.78 153.828 416.422 153.596 417.252 153.596C417.565 153.596 417.875 153.638 418.183 153.721L418.109 154.819C417.88 154.775 417.636 154.753 417.377 154.753C416.938 154.753 416.598 154.883 416.359 155.142C416.12 155.396 416 155.762 416 156.24V157.075H417.692V158.123H416V165H414.645ZM418.834 160.964C418.834 160.188 418.986 159.49 419.289 158.87C419.596 158.25 420.021 157.771 420.563 157.434C421.11 157.097 421.732 156.929 422.431 156.929C423.51 156.929 424.381 157.302 425.045 158.049C425.714 158.796 426.049 159.79 426.049 161.03V161.125C426.049 161.897 425.9 162.59 425.602 163.206C425.309 163.816 424.887 164.292 424.335 164.634C423.788 164.976 423.158 165.146 422.445 165.146C421.371 165.146 420.5 164.773 419.831 164.026C419.167 163.279 418.834 162.29 418.834 161.06V160.964ZM420.197 161.125C420.197 162.004 420.399 162.71 420.805 163.242C421.215 163.774 421.762 164.041 422.445 164.041C423.134 164.041 423.681 163.772 424.086 163.235C424.491 162.693 424.694 161.936 424.694 160.964C424.694 160.095 424.486 159.392 424.071 158.855C423.661 158.313 423.114 158.042 422.431 158.042C421.762 158.042 421.222 158.308 420.812 158.84C420.402 159.373 420.197 160.134 420.197 161.125ZM429.22 165H427.865V153.75H429.22V165ZM432.868 165H431.513V153.75H432.868V165ZM434.684 160.964C434.684 160.188 434.835 159.49 435.138 158.87C435.446 158.25 435.871 157.771 436.413 157.434C436.959 157.097 437.582 156.929 438.28 156.929C439.359 156.929 440.231 157.302 440.895 158.049C441.564 158.796 441.898 159.79 441.898 161.03V161.125C441.898 161.897 441.75 162.59 441.452 163.206C441.159 163.816 440.736 164.292 440.185 164.634C439.638 164.976 439.008 165.146 438.295 165.146C437.221 165.146 436.349 164.773 435.68 164.026C435.016 163.279 434.684 162.29 434.684 161.06V160.964ZM436.046 161.125C436.046 162.004 436.249 162.71 436.654 163.242C437.064 163.774 437.611 164.041 438.295 164.041C438.983 164.041 439.53 163.772 439.936 163.235C440.341 162.693 440.543 161.936 440.543 160.964C440.543 160.095 440.336 159.392 439.921 158.855C439.511 158.313 438.964 158.042 438.28 158.042C437.611 158.042 437.072 158.308 436.662 158.84C436.251 159.373 436.046 160.134 436.046 161.125ZM450.614 163.132L452.138 157.075H453.493L451.186 165H450.087L448.161 158.994L446.286 165H445.187L442.887 157.075H444.235L445.795 163.008L447.641 157.075H448.732L450.614 163.132ZM459.77 165C459.691 164.844 459.628 164.565 459.579 164.165C458.949 164.819 458.197 165.146 457.323 165.146C456.542 165.146 455.9 164.927 455.397 164.487C454.899 164.043 454.65 163.481 454.65 162.803C454.65 161.978 454.962 161.338 455.587 160.884C456.217 160.425 457.101 160.195 458.239 160.195H459.557V159.573C459.557 159.099 459.416 158.723 459.132 158.445C458.849 158.162 458.432 158.02 457.88 158.02C457.396 158.02 456.991 158.142 456.664 158.386C456.337 158.63 456.173 158.926 456.173 159.272H454.811C454.811 158.877 454.95 158.496 455.229 158.13C455.512 157.759 455.893 157.466 456.371 157.251C456.854 157.036 457.384 156.929 457.96 156.929C458.874 156.929 459.589 157.158 460.106 157.617C460.624 158.071 460.893 158.699 460.912 159.5V163.147C460.912 163.875 461.005 164.453 461.19 164.883V165H459.77ZM457.521 163.967C457.946 163.967 458.349 163.857 458.729 163.638C459.11 163.418 459.386 163.132 459.557 162.781V161.155H458.495C456.835 161.155 456.005 161.641 456.005 162.612C456.005 163.037 456.146 163.369 456.43 163.608C456.713 163.848 457.077 163.967 457.521 163.967ZM462.714 160.972C462.714 159.736 463 158.755 463.571 158.027C464.142 157.295 464.899 156.929 465.841 156.929C466.808 156.929 467.562 157.271 468.104 157.954L468.17 157.075H469.408V164.81C469.408 165.835 469.103 166.643 468.493 167.234C467.887 167.825 467.072 168.12 466.046 168.12C465.475 168.12 464.916 167.998 464.369 167.754C463.822 167.51 463.405 167.175 463.117 166.75L463.82 165.938C464.401 166.655 465.111 167.014 465.951 167.014C466.61 167.014 467.123 166.829 467.489 166.458C467.86 166.086 468.046 165.564 468.046 164.89V164.209C467.504 164.834 466.764 165.146 465.827 165.146C464.899 165.146 464.147 164.773 463.571 164.026C463 163.279 462.714 162.261 462.714 160.972ZM464.076 161.125C464.076 162.019 464.259 162.722 464.625 163.235C464.992 163.743 465.504 163.997 466.164 163.997C467.018 163.997 467.646 163.608 468.046 162.832V159.214C467.631 158.457 467.008 158.079 466.178 158.079C465.519 158.079 465.004 158.335 464.633 158.848C464.262 159.36 464.076 160.12 464.076 161.125ZM474.748 165.146C473.673 165.146 472.799 164.795 472.125 164.092C471.452 163.384 471.115 162.439 471.115 161.257V161.008C471.115 160.222 471.264 159.521 471.562 158.906C471.864 158.286 472.284 157.803 472.821 157.456C473.363 157.104 473.949 156.929 474.579 156.929C475.609 156.929 476.41 157.268 476.981 157.947C477.553 158.625 477.838 159.597 477.838 160.862V161.426H472.47C472.489 162.207 472.716 162.839 473.151 163.323C473.59 163.801 474.147 164.041 474.821 164.041C475.299 164.041 475.705 163.943 476.037 163.748C476.369 163.552 476.659 163.293 476.908 162.971L477.736 163.616C477.072 164.636 476.076 165.146 474.748 165.146ZM474.579 158.042C474.032 158.042 473.573 158.242 473.202 158.643C472.831 159.038 472.602 159.595 472.514 160.312H476.483V160.21C476.444 159.521 476.259 158.989 475.927 158.613C475.595 158.232 475.146 158.042 474.579 158.042Z" fill="white"/>
<rect x="256" y="190" width="233" height="41" rx="15" fill="#260C40"/>
<path d="M266.952 216V205.336H270.688C271.981 205.336 272.963 205.585 273.632 206.083C274.301 206.576 274.635 207.301 274.635 208.258C274.635 208.781 274.501 209.242 274.232 209.643C273.964 210.038 273.59 210.329 273.112 210.514C273.659 210.651 274.088 210.927 274.401 211.342C274.718 211.757 274.877 212.265 274.877 212.865C274.877 213.891 274.55 214.667 273.896 215.194C273.241 215.722 272.309 215.99 271.098 216H266.952ZM269.149 211.356V214.235H271.032C271.549 214.235 271.952 214.113 272.24 213.869C272.533 213.62 272.68 213.278 272.68 212.843C272.68 211.867 272.174 211.371 271.164 211.356H269.149ZM269.149 209.804H270.775C271.884 209.784 272.438 209.342 272.438 208.478C272.438 207.995 272.296 207.648 272.013 207.438C271.735 207.223 271.293 207.116 270.688 207.116H269.149V209.804ZM276.063 211.964C276.063 211.178 276.215 210.478 276.518 209.862C276.82 209.247 277.255 208.771 277.821 208.434C278.393 208.097 279.054 207.929 279.806 207.929C280.875 207.929 281.747 208.256 282.421 208.91C283.1 209.564 283.478 210.453 283.556 211.576L283.571 212.118C283.571 213.334 283.231 214.311 282.553 215.048C281.874 215.78 280.963 216.146 279.821 216.146C278.678 216.146 277.765 215.78 277.082 215.048C276.403 214.315 276.063 213.319 276.063 212.06V211.964ZM278.18 212.118C278.18 212.87 278.322 213.446 278.605 213.847C278.888 214.242 279.293 214.44 279.821 214.44C280.333 214.44 280.734 214.245 281.022 213.854C281.31 213.458 281.454 212.829 281.454 211.964C281.454 211.227 281.31 210.656 281.022 210.25C280.734 209.845 280.329 209.643 279.806 209.643C279.289 209.643 278.888 209.845 278.605 210.25C278.322 210.651 278.18 211.273 278.18 212.118ZM287.409 206.127V208.075H288.764V209.628H287.409V213.583C287.409 213.876 287.465 214.086 287.577 214.213C287.689 214.34 287.904 214.403 288.222 214.403C288.456 214.403 288.664 214.386 288.844 214.352V215.956C288.429 216.083 288.002 216.146 287.562 216.146C286.078 216.146 285.321 215.397 285.292 213.898V209.628H284.135V208.075H285.292V206.127H287.409ZM290.045 214.96C290.045 214.623 290.158 214.35 290.382 214.14C290.612 213.93 290.897 213.825 291.239 213.825C291.586 213.825 291.872 213.93 292.096 214.14C292.326 214.35 292.44 214.623 292.44 214.96C292.44 215.292 292.328 215.563 292.104 215.773C291.879 215.978 291.591 216.081 291.239 216.081C290.893 216.081 290.607 215.978 290.382 215.773C290.158 215.563 290.045 215.292 290.045 214.96ZM290.045 208.961C290.045 208.625 290.158 208.351 290.382 208.141C290.612 207.931 290.897 207.826 291.239 207.826C291.586 207.826 291.872 207.931 292.096 208.141C292.326 208.351 292.44 208.625 292.44 208.961C292.44 209.293 292.328 209.564 292.104 209.774C291.879 209.979 291.591 210.082 291.239 210.082C290.893 210.082 290.607 209.979 290.382 209.774C290.158 209.564 290.045 209.293 290.045 208.961ZM301.574 210.69L304.357 205.336H305.954L302.277 212.023V216H300.871V212.023L297.194 205.336H298.805L301.574 210.69ZM306.276 211.964C306.276 211.188 306.427 210.49 306.73 209.87C307.038 209.25 307.462 208.771 308.004 208.434C308.551 208.097 309.174 207.929 309.872 207.929C310.951 207.929 311.823 208.302 312.487 209.049C313.156 209.796 313.49 210.79 313.49 212.03V212.125C313.49 212.897 313.341 213.59 313.043 214.206C312.75 214.816 312.328 215.292 311.776 215.634C311.229 215.976 310.6 216.146 309.887 216.146C308.812 216.146 307.941 215.773 307.272 215.026C306.608 214.279 306.276 213.29 306.276 212.06V211.964ZM307.638 212.125C307.638 213.004 307.841 213.71 308.246 214.242C308.656 214.774 309.203 215.041 309.887 215.041C310.575 215.041 311.122 214.772 311.527 214.235C311.933 213.693 312.135 212.936 312.135 211.964C312.135 211.095 311.928 210.392 311.513 209.855C311.103 209.313 310.556 209.042 309.872 209.042C309.203 209.042 308.664 209.308 308.253 209.84C307.843 210.373 307.638 211.134 307.638 212.125ZM320.082 215.216C319.555 215.836 318.781 216.146 317.76 216.146C316.916 216.146 316.271 215.902 315.827 215.414C315.387 214.921 315.165 214.193 315.16 213.231V208.075H316.515V213.195C316.515 214.396 317.003 214.997 317.98 214.997C319.015 214.997 319.704 214.611 320.045 213.839V208.075H321.4V216H320.111L320.082 215.216ZM327.853 216V209.123H326.601V208.075H327.853V207.262C327.853 206.413 328.08 205.756 328.534 205.292C328.988 204.828 329.63 204.596 330.46 204.596C330.773 204.596 331.083 204.638 331.391 204.721L331.317 205.819C331.088 205.775 330.844 205.753 330.585 205.753C330.146 205.753 329.806 205.883 329.567 206.142C329.328 206.396 329.208 206.762 329.208 207.24V208.075H330.9V209.123H329.208V216H327.853ZM332.042 211.964C332.042 211.188 332.194 210.49 332.497 209.87C332.804 209.25 333.229 208.771 333.771 208.434C334.318 208.097 334.94 207.929 335.639 207.929C336.718 207.929 337.589 208.302 338.253 209.049C338.922 209.796 339.257 210.79 339.257 212.03V212.125C339.257 212.897 339.108 213.59 338.81 214.206C338.517 214.816 338.095 215.292 337.543 215.634C336.996 215.976 336.366 216.146 335.653 216.146C334.579 216.146 333.708 215.773 333.039 215.026C332.375 214.279 332.042 213.29 332.042 212.06V211.964ZM333.405 212.125C333.405 213.004 333.607 213.71 334.013 214.242C334.423 214.774 334.97 215.041 335.653 215.041C336.342 215.041 336.889 214.772 337.294 214.235C337.699 213.693 337.902 212.936 337.902 211.964C337.902 211.095 337.694 210.392 337.279 209.855C336.869 209.313 336.322 209.042 335.639 209.042C334.97 209.042 334.43 209.308 334.02 209.84C333.61 210.373 333.405 211.134 333.405 212.125ZM342.428 216H341.073V204.75H342.428V216ZM346.076 216H344.721V204.75H346.076V216ZM347.892 211.964C347.892 211.188 348.043 210.49 348.346 209.87C348.654 209.25 349.079 208.771 349.621 208.434C350.167 208.097 350.79 207.929 351.488 207.929C352.567 207.929 353.439 208.302 354.103 209.049C354.772 209.796 355.106 210.79 355.106 212.03V212.125C355.106 212.897 354.958 213.59 354.66 214.206C354.367 214.816 353.944 215.292 353.393 215.634C352.846 215.976 352.216 216.146 351.503 216.146C350.429 216.146 349.557 215.773 348.888 215.026C348.224 214.279 347.892 213.29 347.892 212.06V211.964ZM349.254 212.125C349.254 213.004 349.457 213.71 349.862 214.242C350.272 214.774 350.819 215.041 351.503 215.041C352.191 215.041 352.738 214.772 353.144 214.235C353.549 213.693 353.751 212.936 353.751 211.964C353.751 211.095 353.544 210.392 353.129 209.855C352.719 209.313 352.172 209.042 351.488 209.042C350.819 209.042 350.28 209.308 349.87 209.84C349.459 210.373 349.254 211.134 349.254 212.125ZM363.822 214.132L365.346 208.075H366.701L364.394 216H363.295L361.369 209.994L359.494 216H358.395L356.095 208.075H357.443L359.003 214.008L360.849 208.075H361.94L363.822 214.132ZM376.42 213.898C376.42 213.532 376.281 213.249 376.002 213.048C375.729 212.843 375.248 212.667 374.56 212.521C373.876 212.375 373.332 212.199 372.926 211.994C372.526 211.789 372.228 211.544 372.033 211.261C371.842 210.978 371.747 210.641 371.747 210.25C371.747 209.601 372.021 209.052 372.567 208.603C373.119 208.153 373.822 207.929 374.677 207.929C375.575 207.929 376.303 208.161 376.859 208.625C377.421 209.088 377.702 209.682 377.702 210.404H376.339C376.339 210.033 376.181 209.713 375.863 209.445C375.551 209.176 375.155 209.042 374.677 209.042C374.184 209.042 373.798 209.149 373.52 209.364C373.241 209.579 373.102 209.86 373.102 210.207C373.102 210.534 373.231 210.78 373.49 210.946C373.749 211.112 374.215 211.271 374.889 211.422C375.568 211.574 376.117 211.754 376.537 211.964C376.957 212.174 377.267 212.428 377.467 212.726C377.672 213.019 377.775 213.378 377.775 213.803C377.775 214.511 377.492 215.08 376.925 215.509C376.359 215.934 375.624 216.146 374.721 216.146C374.086 216.146 373.524 216.034 373.036 215.81C372.548 215.585 372.165 215.272 371.886 214.872C371.613 214.467 371.476 214.03 371.476 213.561H372.831C372.855 214.015 373.036 214.376 373.373 214.645C373.715 214.909 374.164 215.041 374.721 215.041C375.233 215.041 375.644 214.938 375.951 214.733C376.264 214.523 376.42 214.245 376.42 213.898ZM381.012 216H379.657V208.075H381.012V216ZM379.547 205.973C379.547 205.753 379.613 205.568 379.745 205.417C379.882 205.265 380.082 205.189 380.346 205.189C380.609 205.189 380.81 205.265 380.946 205.417C381.083 205.568 381.151 205.753 381.151 205.973C381.151 206.193 381.083 206.376 380.946 206.522C380.81 206.669 380.609 206.742 380.346 206.742C380.082 206.742 379.882 206.669 379.745 206.522C379.613 206.376 379.547 206.193 379.547 205.973ZM384.469 208.075L384.513 209.071C385.119 208.31 385.91 207.929 386.886 207.929C388.561 207.929 389.406 208.874 389.42 210.763V216H388.065V210.756C388.061 210.185 387.929 209.762 387.67 209.489C387.416 209.215 387.018 209.079 386.476 209.079C386.037 209.079 385.651 209.196 385.319 209.43C384.987 209.665 384.728 209.972 384.542 210.353V216H383.188V208.075H384.469ZM394.643 215.041C395.126 215.041 395.548 214.894 395.91 214.601C396.271 214.308 396.471 213.942 396.51 213.502H397.792C397.768 213.957 397.611 214.389 397.323 214.799C397.035 215.209 396.649 215.536 396.166 215.78C395.688 216.024 395.18 216.146 394.643 216.146C393.563 216.146 392.704 215.788 392.064 215.07C391.43 214.347 391.112 213.361 391.112 212.111V211.884C391.112 211.112 391.254 210.426 391.537 209.826C391.82 209.225 392.226 208.759 392.753 208.427C393.285 208.095 393.913 207.929 394.635 207.929C395.524 207.929 396.261 208.195 396.847 208.727C397.438 209.259 397.753 209.95 397.792 210.8H396.51C396.471 210.287 396.276 209.867 395.924 209.54C395.578 209.208 395.148 209.042 394.635 209.042C393.947 209.042 393.412 209.291 393.031 209.789C392.655 210.282 392.467 210.998 392.467 211.935V212.191C392.467 213.104 392.655 213.808 393.031 214.301C393.407 214.794 393.944 215.041 394.643 215.041ZM402.604 216.146C401.53 216.146 400.656 215.795 399.982 215.092C399.308 214.384 398.971 213.439 398.971 212.257V212.008C398.971 211.222 399.12 210.521 399.418 209.906C399.721 209.286 400.141 208.803 400.678 208.456C401.22 208.104 401.806 207.929 402.436 207.929C403.466 207.929 404.267 208.268 404.838 208.947C405.409 209.625 405.695 210.597 405.695 211.862V212.426H400.326C400.346 213.207 400.573 213.839 401.007 214.323C401.447 214.801 402.003 215.041 402.677 215.041C403.156 215.041 403.561 214.943 403.893 214.748C404.225 214.552 404.516 214.293 404.765 213.971L405.592 214.616C404.928 215.636 403.932 216.146 402.604 216.146ZM402.436 209.042C401.889 209.042 401.43 209.242 401.059 209.643C400.688 210.038 400.458 210.595 400.37 211.312H404.34V211.21C404.301 210.521 404.115 209.989 403.783 209.613C403.451 209.232 403.002 209.042 402.436 209.042ZM415.304 216H413.942V206.969L411.21 207.973V206.742L415.092 205.285H415.304V216ZM421.244 210.009H422.262C422.902 209.999 423.405 209.831 423.771 209.503C424.137 209.176 424.32 208.734 424.32 208.178C424.32 206.928 423.698 206.303 422.453 206.303C421.867 206.303 421.398 206.471 421.046 206.808C420.7 207.14 420.526 207.582 420.526 208.134H419.171C419.171 207.289 419.479 206.588 420.094 206.032C420.714 205.47 421.5 205.189 422.453 205.189C423.458 205.189 424.247 205.456 424.818 205.988C425.39 206.52 425.675 207.26 425.675 208.207C425.675 208.671 425.524 209.12 425.221 209.555C424.923 209.989 424.516 210.314 423.998 210.529C424.584 210.714 425.036 211.022 425.353 211.452C425.675 211.881 425.836 212.406 425.836 213.026C425.836 213.983 425.524 214.743 424.899 215.304C424.274 215.866 423.461 216.146 422.46 216.146C421.459 216.146 420.644 215.875 420.014 215.333C419.389 214.792 419.076 214.076 419.076 213.188H420.438C420.438 213.749 420.622 214.198 420.988 214.535C421.354 214.872 421.845 215.041 422.46 215.041C423.114 215.041 423.615 214.87 423.961 214.528C424.308 214.186 424.481 213.695 424.481 213.056C424.481 212.436 424.291 211.959 423.91 211.627C423.529 211.295 422.98 211.125 422.262 211.115H421.244V210.009ZM429.667 210.009H430.685C431.325 209.999 431.828 209.831 432.194 209.503C432.56 209.176 432.743 208.734 432.743 208.178C432.743 206.928 432.121 206.303 430.875 206.303C430.29 206.303 429.821 206.471 429.469 206.808C429.123 207.14 428.949 207.582 428.949 208.134H427.594C427.594 207.289 427.902 206.588 428.517 206.032C429.137 205.47 429.923 205.189 430.875 205.189C431.881 205.189 432.67 205.456 433.241 205.988C433.812 206.52 434.098 207.26 434.098 208.207C434.098 208.671 433.947 209.12 433.644 209.555C433.346 209.989 432.938 210.314 432.421 210.529C433.007 210.714 433.458 211.022 433.776 211.452C434.098 211.881 434.259 212.406 434.259 213.026C434.259 213.983 433.947 214.743 433.322 215.304C432.697 215.866 431.884 216.146 430.883 216.146C429.882 216.146 429.066 215.875 428.437 215.333C427.812 214.792 427.499 214.076 427.499 213.188H428.861C428.861 213.749 429.044 214.198 429.411 214.535C429.777 214.872 430.268 215.041 430.883 215.041C431.537 215.041 432.038 214.87 432.384 214.528C432.731 214.186 432.904 213.695 432.904 213.056C432.904 212.436 432.714 211.959 432.333 211.627C431.952 211.295 431.403 211.125 430.685 211.115H429.667V210.009ZM443.004 206.098L438.588 216H437.167L441.569 206.449H435.797V205.336H443.004V206.098ZM448.073 211.972C448.073 210.756 448.361 209.779 448.937 209.042C449.513 208.3 450.268 207.929 451.2 207.929C452.128 207.929 452.863 208.246 453.405 208.881V204.75H454.76V216H453.515L453.449 215.15C452.907 215.814 452.152 216.146 451.186 216.146C450.268 216.146 449.518 215.771 448.937 215.019C448.361 214.267 448.073 213.285 448.073 212.074V211.972ZM449.428 212.125C449.428 213.024 449.613 213.727 449.984 214.235C450.355 214.743 450.868 214.997 451.522 214.997C452.382 214.997 453.009 214.611 453.405 213.839V210.199C453 209.452 452.377 209.079 451.537 209.079C450.873 209.079 450.355 209.335 449.984 209.848C449.613 210.36 449.428 211.12 449.428 212.125ZM461.762 216C461.684 215.844 461.62 215.565 461.571 215.165C460.941 215.819 460.189 216.146 459.315 216.146C458.534 216.146 457.892 215.927 457.389 215.487C456.891 215.043 456.642 214.481 456.642 213.803C456.642 212.978 456.955 212.338 457.58 211.884C458.209 211.425 459.093 211.195 460.231 211.195H461.549V210.573C461.549 210.099 461.408 209.723 461.125 209.445C460.841 209.162 460.424 209.02 459.872 209.02C459.389 209.02 458.983 209.142 458.656 209.386C458.329 209.63 458.166 209.926 458.166 210.272H456.803C456.803 209.877 456.942 209.496 457.221 209.13C457.504 208.759 457.885 208.466 458.363 208.251C458.847 208.036 459.376 207.929 459.953 207.929C460.866 207.929 461.581 208.158 462.099 208.617C462.616 209.071 462.885 209.699 462.904 210.5V214.147C462.904 214.875 462.997 215.453 463.183 215.883V216H461.762ZM459.513 214.967C459.938 214.967 460.341 214.857 460.722 214.638C461.103 214.418 461.378 214.132 461.549 213.781V212.155H460.487C458.827 212.155 457.997 212.641 457.997 213.612C457.997 214.037 458.139 214.369 458.422 214.608C458.705 214.848 459.069 214.967 459.513 214.967ZM467.504 214.015L469.35 208.075H470.8L467.614 217.223C467.121 218.542 466.337 219.201 465.263 219.201L465.006 219.179L464.501 219.083V217.985L464.867 218.014C465.326 218.014 465.683 217.921 465.937 217.736C466.195 217.55 466.408 217.211 466.574 216.718L466.874 215.912L464.047 208.075H465.526L467.504 214.015ZM476.63 213.898C476.63 213.532 476.491 213.249 476.212 213.048C475.939 212.843 475.458 212.667 474.77 212.521C474.086 212.375 473.542 212.199 473.136 211.994C472.736 211.789 472.438 211.544 472.243 211.261C472.052 210.978 471.957 210.641 471.957 210.25C471.957 209.601 472.23 209.052 472.777 208.603C473.329 208.153 474.032 207.929 474.887 207.929C475.785 207.929 476.513 208.161 477.069 208.625C477.631 209.088 477.912 209.682 477.912 210.404H476.549C476.549 210.033 476.391 209.713 476.073 209.445C475.761 209.176 475.365 209.042 474.887 209.042C474.394 209.042 474.008 209.149 473.729 209.364C473.451 209.579 473.312 209.86 473.312 210.207C473.312 210.534 473.441 210.78 473.7 210.946C473.959 211.112 474.425 211.271 475.099 211.422C475.778 211.574 476.327 211.754 476.747 211.964C477.167 212.174 477.477 212.428 477.677 212.726C477.882 213.019 477.985 213.378 477.985 213.803C477.985 214.511 477.702 215.08 477.135 215.509C476.569 215.934 475.834 216.146 474.931 216.146C474.296 216.146 473.734 216.034 473.246 215.81C472.758 215.585 472.375 215.272 472.096 214.872C471.823 214.467 471.686 214.03 471.686 213.561H473.041C473.065 214.015 473.246 214.376 473.583 214.645C473.925 214.909 474.374 215.041 474.931 215.041C475.443 215.041 475.854 214.938 476.161 214.733C476.474 214.523 476.63 214.245 476.63 213.898Z" fill="white"/>
<rect x="316" y="241" width="292" height="41" rx="15" fill="#025A25"/>
<path d="M328.798 259.075L328.864 259.961C329.425 259.273 330.185 258.929 331.142 258.929C332.162 258.929 332.863 259.332 333.244 260.137C333.8 259.332 334.594 258.929 335.624 258.929C336.483 258.929 337.123 259.18 337.543 259.683C337.963 260.181 338.173 260.933 338.173 261.939V267H336.049V261.946C336.049 261.497 335.961 261.17 335.785 260.965C335.609 260.755 335.299 260.65 334.855 260.65C334.22 260.65 333.781 260.953 333.537 261.558L333.544 267H331.427V261.954C331.427 261.495 331.337 261.163 331.156 260.958C330.976 260.752 330.668 260.65 330.233 260.65C329.633 260.65 329.198 260.899 328.93 261.397V267H326.813V259.075H328.798ZM339.477 262.964C339.477 262.178 339.628 261.478 339.931 260.862C340.233 260.247 340.668 259.771 341.234 259.434C341.806 259.097 342.467 258.929 343.219 258.929C344.289 258.929 345.16 259.256 345.834 259.91C346.513 260.564 346.891 261.453 346.969 262.576L346.984 263.118C346.984 264.334 346.645 265.311 345.966 266.048C345.287 266.78 344.376 267.146 343.234 267.146C342.091 267.146 341.178 266.78 340.495 266.048C339.816 265.315 339.477 264.319 339.477 263.06V262.964ZM341.593 263.118C341.593 263.87 341.735 264.446 342.018 264.847C342.301 265.242 342.707 265.44 343.234 265.44C343.747 265.44 344.147 265.245 344.435 264.854C344.723 264.458 344.867 263.829 344.867 262.964C344.867 262.227 344.723 261.656 344.435 261.25C344.147 260.845 343.742 260.643 343.219 260.643C342.702 260.643 342.301 260.845 342.018 261.25C341.735 261.651 341.593 262.273 341.593 263.118ZM352.367 264.356L354.784 256.336H357.23L353.517 267H351.225L347.526 256.336H349.965L352.367 264.356ZM362.189 263.096H360.438V267H358.241V256.336H362.204C363.463 256.336 364.435 256.617 365.119 257.178C365.802 257.74 366.144 258.533 366.144 259.559C366.144 260.286 365.985 260.894 365.668 261.382C365.355 261.866 364.879 262.251 364.24 262.54L366.547 266.897V267H364.188L362.189 263.096ZM360.438 261.316H362.211C362.763 261.316 363.19 261.177 363.493 260.899C363.795 260.616 363.947 260.228 363.947 259.734C363.947 259.231 363.803 258.836 363.515 258.548C363.231 258.26 362.794 258.116 362.204 258.116H360.438V261.316ZM371.974 264.81C371.974 264.551 371.845 264.349 371.586 264.202C371.332 264.051 370.922 263.917 370.355 263.799C368.471 263.404 367.528 262.603 367.528 261.397C367.528 260.694 367.819 260.108 368.4 259.639C368.986 259.166 369.75 258.929 370.692 258.929C371.698 258.929 372.501 259.166 373.102 259.639C373.708 260.113 374.01 260.728 374.01 261.485H371.894C371.894 261.182 371.796 260.933 371.601 260.738C371.405 260.538 371.1 260.438 370.685 260.438C370.329 260.438 370.053 260.518 369.857 260.679C369.662 260.84 369.564 261.045 369.564 261.294C369.564 261.529 369.674 261.719 369.894 261.866C370.119 262.007 370.495 262.132 371.022 262.239C371.549 262.342 371.994 262.459 372.355 262.591C373.473 263.001 374.032 263.711 374.032 264.722C374.032 265.445 373.722 266.031 373.102 266.48C372.482 266.924 371.681 267.146 370.7 267.146C370.036 267.146 369.445 267.029 368.927 266.795C368.415 266.556 368.012 266.231 367.719 265.821C367.426 265.406 367.279 264.959 367.279 264.48H369.286C369.306 264.856 369.445 265.145 369.704 265.345C369.962 265.545 370.309 265.645 370.744 265.645C371.149 265.645 371.454 265.569 371.659 265.418C371.869 265.262 371.974 265.059 371.974 264.81ZM375.504 265.96C375.504 265.623 375.617 265.35 375.841 265.14C376.071 264.93 376.356 264.825 376.698 264.825C377.045 264.825 377.331 264.93 377.555 265.14C377.785 265.35 377.899 265.623 377.899 265.96C377.899 266.292 377.787 266.563 377.562 266.773C377.338 266.978 377.05 267.081 376.698 267.081C376.352 267.081 376.066 266.978 375.841 266.773C375.617 266.563 375.504 266.292 375.504 265.96ZM375.504 259.961C375.504 259.625 375.617 259.351 375.841 259.141C376.071 258.931 376.356 258.826 376.698 258.826C377.045 258.826 377.331 258.931 377.555 259.141C377.785 259.351 377.899 259.625 377.899 259.961C377.899 260.293 377.787 260.564 377.562 260.774C377.338 260.979 377.05 261.082 376.698 261.082C376.352 261.082 376.066 260.979 375.841 260.774C375.617 260.564 375.504 260.293 375.504 259.961ZM391.288 267.154C390.448 267.129 389.916 266.78 389.691 266.106C389.076 266.81 388.422 267.154 387.729 267.139C387.143 267.129 386.696 266.893 386.388 266.429C386.085 265.96 385.954 265.345 385.993 264.583C386.022 263.826 386.225 263.05 386.601 262.254C386.977 261.458 387.45 260.838 388.021 260.394C388.598 259.949 389.232 259.732 389.926 259.742C390.282 259.751 390.617 259.812 390.929 259.925C391.247 260.037 391.627 260.24 392.072 260.533L391.09 264.795L391.039 265.184C390.985 265.696 391.166 265.965 391.581 265.989C392.196 266.014 392.694 265.652 393.075 264.905C393.456 264.158 393.688 263.238 393.771 262.144L393.793 261.771C393.817 260.984 393.708 260.291 393.463 259.69C393.219 259.09 392.833 258.633 392.306 258.321C391.779 258.003 391.132 257.837 390.365 257.823C389.564 257.808 388.803 257.979 388.08 258.335C387.362 258.687 386.72 259.207 386.154 259.896C385.587 260.584 385.141 261.375 384.813 262.269C384.491 263.157 384.313 264.058 384.279 264.971C384.235 266.001 384.416 266.863 384.821 267.557C385.392 268.523 386.361 269.014 387.729 269.029C388.515 269.039 389.34 268.873 390.204 268.531L390.409 269.688C389.779 270.108 388.888 270.318 387.736 270.318C386.754 270.308 385.927 270.123 385.253 269.761C384.584 269.4 384.057 268.914 383.671 268.304C383.285 267.693 383.041 266.988 382.938 266.187C382.792 265.088 382.88 263.938 383.202 262.737C383.529 261.536 384.054 260.459 384.777 259.507C385.504 258.555 386.347 257.835 387.304 257.347C388.266 256.854 389.279 256.614 390.343 256.629C391.774 256.653 392.902 257.09 393.727 257.94C394.557 258.785 395.004 259.937 395.067 261.397C395.097 262.222 394.999 263.042 394.774 263.858C394.55 264.673 394.218 265.362 393.778 265.923C393.114 266.768 392.284 267.178 391.288 267.154ZM387.597 264.656C387.543 265.438 387.763 265.835 388.256 265.85C388.52 265.865 388.786 265.745 389.054 265.491C389.323 265.237 389.518 264.944 389.64 264.612L390.57 261.111C390.419 261.058 390.25 261.026 390.065 261.016C389.45 260.992 388.937 261.255 388.527 261.807C388.117 262.359 387.821 263.167 387.641 264.231L387.597 264.656ZM403.278 263.06C403.131 264.31 402.75 265.311 402.135 266.062C401.52 266.814 400.724 267.178 399.748 267.154C398.913 267.134 398.278 266.797 397.843 266.143L397.543 267H395.661L397.609 255.75H399.682L398.883 259.8C399.44 259.2 400.084 258.909 400.817 258.929C401.583 258.938 402.184 259.214 402.619 259.756C403.058 260.293 403.292 261.038 403.322 261.99C403.332 262.293 403.317 262.649 403.278 263.06ZM401.227 262.906C401.271 262.491 401.286 262.168 401.271 261.939C401.217 261.089 400.866 260.657 400.216 260.643C399.606 260.623 399.101 260.899 398.7 261.47L398.129 264.62C398.314 265.147 398.71 265.42 399.315 265.44C400.331 265.469 400.954 264.732 401.183 263.228L401.227 262.906ZM408.456 258.929C409.154 258.938 409.755 259.119 410.258 259.471C410.766 259.817 411.137 260.298 411.371 260.914C411.61 261.524 411.696 262.203 411.627 262.95C411.515 264.209 411.076 265.23 410.309 266.011C409.547 266.788 408.605 267.166 407.482 267.146C406.793 267.137 406.198 266.961 405.695 266.619C405.192 266.272 404.821 265.794 404.582 265.184C404.342 264.573 404.257 263.899 404.325 263.162C404.452 261.854 404.896 260.813 405.658 260.042C406.42 259.271 407.353 258.899 408.456 258.929ZM406.369 263.917C406.378 264.385 406.488 264.756 406.698 265.03C406.908 265.298 407.204 265.438 407.584 265.447C408.219 265.467 408.717 265.176 409.079 264.576C409.44 263.97 409.608 263.177 409.584 262.195C409.564 261.727 409.45 261.353 409.24 261.075C409.035 260.792 408.739 260.645 408.354 260.635C407.738 260.616 407.245 260.906 406.874 261.507C406.508 262.103 406.339 262.906 406.369 263.917ZM416.417 257.127L416.073 259.075H417.392L417.121 260.628H415.802L415.128 264.598C415.099 264.847 415.119 265.037 415.187 265.169C415.255 265.301 415.421 265.372 415.685 265.381C415.763 265.386 415.973 265.374 416.315 265.345L416.168 266.963C415.802 267.085 415.407 267.142 414.982 267.132C414.303 267.122 413.798 266.91 413.466 266.495C413.134 266.08 412.997 265.518 413.056 264.81L413.737 260.628H412.616L412.887 259.075H414.008L414.345 257.127H416.417ZM424.459 263.638L424.665 265.044L424.965 263.777L427.074 256.336H428.261L430.319 263.777L430.612 265.066L430.839 263.631L432.494 256.336H433.908L431.322 267H430.041L427.843 259.229L427.675 258.416L427.506 259.229L425.229 267H423.947L421.369 256.336H422.775L424.459 263.638ZM436.618 260.035C437.218 259.297 438 258.929 438.961 258.929C440.636 258.929 441.481 259.874 441.496 261.763V267H440.141V261.756C440.136 261.185 440.004 260.762 439.745 260.489C439.491 260.215 439.093 260.079 438.551 260.079C438.112 260.079 437.726 260.196 437.394 260.43C437.062 260.665 436.803 260.972 436.618 261.353V267H435.263V255.75H436.618V260.035ZM448.417 267C448.339 266.844 448.275 266.565 448.227 266.165C447.597 266.819 446.845 267.146 445.971 267.146C445.189 267.146 444.547 266.927 444.044 266.487C443.546 266.043 443.297 265.481 443.297 264.803C443.297 263.978 443.61 263.338 444.235 262.884C444.865 262.425 445.749 262.195 446.886 262.195H448.205V261.573C448.205 261.099 448.063 260.723 447.78 260.445C447.497 260.162 447.079 260.02 446.527 260.02C446.044 260.02 445.639 260.142 445.312 260.386C444.984 260.63 444.821 260.926 444.821 261.272H443.458C443.458 260.877 443.598 260.496 443.876 260.13C444.159 259.759 444.54 259.466 445.019 259.251C445.502 259.036 446.032 258.929 446.608 258.929C447.521 258.929 448.236 259.158 448.754 259.617C449.271 260.071 449.54 260.699 449.56 261.5V265.147C449.56 265.875 449.652 266.453 449.838 266.883V267H448.417ZM446.168 265.967C446.593 265.967 446.996 265.857 447.377 265.638C447.758 265.418 448.034 265.132 448.205 264.781V263.155H447.143C445.482 263.155 444.652 263.641 444.652 264.612C444.652 265.037 444.794 265.369 445.077 265.608C445.36 265.848 445.724 265.967 446.168 265.967ZM453.522 257.156V259.075H455.001V260.123H453.522V265.037C453.522 265.354 453.588 265.594 453.72 265.755C453.852 265.911 454.076 265.989 454.394 265.989C454.55 265.989 454.765 265.96 455.038 265.901V267C454.682 267.098 454.335 267.146 453.998 267.146C453.393 267.146 452.936 266.963 452.628 266.597C452.321 266.231 452.167 265.711 452.167 265.037V260.123H450.724V259.075H452.167V257.156H453.522ZM461.784 267H460.429V259.075H461.784V267ZM460.319 256.973C460.319 256.753 460.385 256.568 460.517 256.417C460.653 256.265 460.854 256.189 461.117 256.189C461.381 256.189 461.581 256.265 461.718 256.417C461.854 256.568 461.923 256.753 461.923 256.973C461.923 257.193 461.854 257.376 461.718 257.522C461.581 257.669 461.381 257.742 461.117 257.742C460.854 257.742 460.653 257.669 460.517 257.522C460.385 257.376 460.319 257.193 460.319 256.973ZM468.573 264.898C468.573 264.532 468.434 264.249 468.156 264.048C467.882 263.843 467.401 263.667 466.713 263.521C466.029 263.375 465.485 263.199 465.08 262.994C464.679 262.789 464.381 262.544 464.186 262.261C463.996 261.978 463.9 261.641 463.9 261.25C463.9 260.601 464.174 260.052 464.721 259.603C465.272 259.153 465.976 258.929 466.83 258.929C467.729 258.929 468.456 259.161 469.013 259.625C469.574 260.088 469.855 260.682 469.855 261.404H468.493C468.493 261.033 468.334 260.713 468.017 260.445C467.704 260.176 467.309 260.042 466.83 260.042C466.337 260.042 465.951 260.149 465.673 260.364C465.395 260.579 465.255 260.86 465.255 261.207C465.255 261.534 465.385 261.78 465.644 261.946C465.902 262.112 466.369 262.271 467.042 262.422C467.721 262.574 468.271 262.754 468.69 262.964C469.11 263.174 469.42 263.428 469.621 263.726C469.826 264.019 469.928 264.378 469.928 264.803C469.928 265.511 469.645 266.08 469.079 266.509C468.512 266.934 467.777 267.146 466.874 267.146C466.239 267.146 465.678 267.034 465.189 266.81C464.701 266.585 464.318 266.272 464.04 265.872C463.766 265.467 463.629 265.03 463.629 264.561H464.984C465.009 265.015 465.189 265.376 465.526 265.645C465.868 265.909 466.317 266.041 466.874 266.041C467.387 266.041 467.797 265.938 468.104 265.733C468.417 265.523 468.573 265.245 468.573 264.898ZM477.252 257.156V259.075H478.732V260.123H477.252V265.037C477.252 265.354 477.318 265.594 477.45 265.755C477.582 265.911 477.807 265.989 478.124 265.989C478.28 265.989 478.495 265.96 478.769 265.901V267C478.412 267.098 478.065 267.146 477.729 267.146C477.123 267.146 476.667 266.963 476.359 266.597C476.051 266.231 475.897 265.711 475.897 265.037V260.123H474.455V259.075H475.897V257.156H477.252ZM481.676 260.035C482.277 259.297 483.058 258.929 484.02 258.929C485.695 258.929 486.54 259.874 486.554 261.763V267H485.199V261.756C485.194 261.185 485.062 260.762 484.804 260.489C484.55 260.215 484.152 260.079 483.61 260.079C483.17 260.079 482.785 260.196 482.453 260.43C482.121 260.665 481.862 260.972 481.676 261.353V267H480.321V255.75H481.676V260.035ZM491.872 267.146C490.797 267.146 489.923 266.795 489.25 266.092C488.576 265.384 488.239 264.439 488.239 263.257V263.008C488.239 262.222 488.388 261.521 488.686 260.906C488.988 260.286 489.408 259.803 489.945 259.456C490.487 259.104 491.073 258.929 491.703 258.929C492.733 258.929 493.534 259.268 494.105 259.947C494.677 260.625 494.962 261.597 494.962 262.862V263.426H489.594C489.613 264.207 489.84 264.839 490.275 265.323C490.714 265.801 491.271 266.041 491.945 266.041C492.423 266.041 492.829 265.943 493.161 265.748C493.493 265.552 493.783 265.293 494.032 264.971L494.86 265.616C494.196 266.636 493.2 267.146 491.872 267.146ZM491.703 260.042C491.156 260.042 490.697 260.242 490.326 260.643C489.955 261.038 489.726 261.595 489.638 262.312H493.607V262.21C493.568 261.521 493.383 260.989 493.051 260.613C492.719 260.232 492.27 260.042 491.703 260.042ZM501.532 259.075L501.569 259.954C502.15 259.271 502.934 258.929 503.92 258.929C505.028 258.929 505.783 259.354 506.183 260.203C506.447 259.822 506.789 259.515 507.208 259.28C507.633 259.046 508.134 258.929 508.71 258.929C510.448 258.929 511.332 259.849 511.361 261.69V267H510.006V261.771C510.006 261.204 509.877 260.782 509.618 260.503C509.359 260.22 508.925 260.079 508.314 260.079C507.812 260.079 507.394 260.23 507.062 260.533C506.73 260.831 506.537 261.233 506.483 261.741V267H505.121V261.807C505.121 260.655 504.557 260.079 503.429 260.079C502.541 260.079 501.933 260.457 501.605 261.214V267H500.25V259.075H501.532ZM516.701 267.146C515.626 267.146 514.752 266.795 514.079 266.092C513.405 265.384 513.068 264.439 513.068 263.257V263.008C513.068 262.222 513.217 261.521 513.515 260.906C513.817 260.286 514.237 259.803 514.774 259.456C515.316 259.104 515.902 258.929 516.532 258.929C517.562 258.929 518.363 259.268 518.935 259.947C519.506 260.625 519.792 261.597 519.792 262.862V263.426H514.423C514.442 264.207 514.669 264.839 515.104 265.323C515.543 265.801 516.1 266.041 516.774 266.041C517.252 266.041 517.658 265.943 517.99 265.748C518.322 265.552 518.612 265.293 518.861 264.971L519.689 265.616C519.025 266.636 518.029 267.146 516.701 267.146ZM516.532 260.042C515.985 260.042 515.526 260.242 515.155 260.643C514.784 261.038 514.555 261.595 514.467 262.312H518.437V262.21C518.397 261.521 518.212 260.989 517.88 260.613C517.548 260.232 517.099 260.042 516.532 260.042ZM526.259 267C526.181 266.844 526.117 266.565 526.068 266.165C525.438 266.819 524.687 267.146 523.812 267.146C523.031 267.146 522.389 266.927 521.886 266.487C521.388 266.043 521.139 265.481 521.139 264.803C521.139 263.978 521.452 263.338 522.077 262.884C522.707 262.425 523.59 262.195 524.728 262.195H526.046V261.573C526.046 261.099 525.905 260.723 525.622 260.445C525.338 260.162 524.921 260.02 524.369 260.02C523.886 260.02 523.48 260.142 523.153 260.386C522.826 260.63 522.663 260.926 522.663 261.272H521.3C521.3 260.877 521.439 260.496 521.718 260.13C522.001 259.759 522.382 259.466 522.86 259.251C523.344 259.036 523.874 258.929 524.45 258.929C525.363 258.929 526.078 259.158 526.596 259.617C527.113 260.071 527.382 260.699 527.401 261.5V265.147C527.401 265.875 527.494 266.453 527.68 266.883V267H526.259ZM524.01 265.967C524.435 265.967 524.838 265.857 525.219 265.638C525.6 265.418 525.875 265.132 526.046 264.781V263.155H524.984C523.324 263.155 522.494 263.641 522.494 264.612C522.494 265.037 522.636 265.369 522.919 265.608C523.202 265.848 523.566 265.967 524.01 265.967ZM530.998 267H529.643V259.075H530.998V267ZM529.533 256.973C529.533 256.753 529.599 256.568 529.73 256.417C529.867 256.265 530.067 256.189 530.331 256.189C530.595 256.189 530.795 256.265 530.932 256.417C531.068 256.568 531.137 256.753 531.137 256.973C531.137 257.193 531.068 257.376 530.932 257.522C530.795 257.669 530.595 257.742 530.331 257.742C530.067 257.742 529.867 257.669 529.73 257.522C529.599 257.376 529.533 257.193 529.533 256.973ZM534.455 259.075L534.499 260.071C535.104 259.31 535.895 258.929 536.872 258.929C538.546 258.929 539.391 259.874 539.406 261.763V267H538.051V261.756C538.046 261.185 537.914 260.762 537.655 260.489C537.401 260.215 537.003 260.079 536.461 260.079C536.022 260.079 535.636 260.196 535.304 260.43C534.972 260.665 534.713 260.972 534.528 261.353V267H533.173V259.075H534.455ZM541.127 262.972C541.127 261.736 541.413 260.755 541.984 260.027C542.555 259.295 543.312 258.929 544.254 258.929C545.221 258.929 545.976 259.271 546.518 259.954L546.583 259.075H547.821V266.81C547.821 267.835 547.516 268.643 546.906 269.234C546.3 269.825 545.485 270.12 544.459 270.12C543.888 270.12 543.329 269.998 542.782 269.754C542.235 269.51 541.818 269.175 541.53 268.75L542.233 267.938C542.814 268.655 543.524 269.014 544.364 269.014C545.023 269.014 545.536 268.829 545.902 268.458C546.273 268.086 546.459 267.564 546.459 266.89V266.209C545.917 266.834 545.177 267.146 544.24 267.146C543.312 267.146 542.56 266.773 541.984 266.026C541.413 265.279 541.127 264.261 541.127 262.972ZM542.489 263.125C542.489 264.019 542.672 264.722 543.039 265.235C543.405 265.743 543.917 265.997 544.577 265.997C545.431 265.997 546.059 265.608 546.459 264.832V261.214C546.044 260.457 545.421 260.079 544.591 260.079C543.932 260.079 543.417 260.335 543.046 260.848C542.675 261.36 542.489 262.12 542.489 263.125ZM553.234 262.964C553.234 262.188 553.385 261.49 553.688 260.87C553.996 260.25 554.42 259.771 554.962 259.434C555.509 259.097 556.132 258.929 556.83 258.929C557.909 258.929 558.781 259.302 559.445 260.049C560.114 260.796 560.448 261.79 560.448 263.03V263.125C560.448 263.897 560.299 264.59 560.001 265.206C559.708 265.816 559.286 266.292 558.734 266.634C558.188 266.976 557.558 267.146 556.845 267.146C555.771 267.146 554.899 266.773 554.23 266.026C553.566 265.279 553.234 264.29 553.234 263.06V262.964ZM554.596 263.125C554.596 264.004 554.799 264.71 555.204 265.242C555.614 265.774 556.161 266.041 556.845 266.041C557.533 266.041 558.08 265.772 558.485 265.235C558.891 264.693 559.093 263.936 559.093 262.964C559.093 262.095 558.886 261.392 558.471 260.855C558.061 260.313 557.514 260.042 556.83 260.042C556.161 260.042 555.622 260.308 555.211 260.84C554.801 261.373 554.596 262.134 554.596 263.125ZM562.814 267V260.123H561.562V259.075H562.814V258.262C562.814 257.413 563.041 256.756 563.495 256.292C563.949 255.828 564.591 255.596 565.421 255.596C565.734 255.596 566.044 255.638 566.352 255.721L566.278 256.819C566.049 256.775 565.805 256.753 565.546 256.753C565.106 256.753 564.767 256.883 564.528 257.142C564.289 257.396 564.169 257.762 564.169 258.24V259.075H565.861V260.123H564.169V267H562.814ZM572.555 267H571.2V255.75H572.555V267ZM576.203 267H574.848V259.075H576.203V267ZM574.738 256.973C574.738 256.753 574.804 256.568 574.936 256.417C575.072 256.265 575.272 256.189 575.536 256.189C575.8 256.189 576 256.265 576.137 256.417C576.273 256.568 576.342 256.753 576.342 256.973C576.342 257.193 576.273 257.376 576.137 257.522C576 257.669 575.8 257.742 575.536 257.742C575.272 257.742 575.072 257.669 574.936 257.522C574.804 257.376 574.738 257.193 574.738 256.973ZM579.044 267V260.123H577.792V259.075H579.044V258.262C579.044 257.413 579.271 256.756 579.726 256.292C580.18 255.828 580.822 255.596 581.652 255.596C581.964 255.596 582.274 255.638 582.582 255.721L582.509 256.819C582.279 256.775 582.035 256.753 581.776 256.753C581.337 256.753 580.998 256.883 580.758 257.142C580.519 257.396 580.399 257.762 580.399 258.24V259.075H582.091V260.123H580.399V267H579.044ZM586.706 267.146C585.631 267.146 584.757 266.795 584.083 266.092C583.41 265.384 583.073 264.439 583.073 263.257V263.008C583.073 262.222 583.222 261.521 583.52 260.906C583.822 260.286 584.242 259.803 584.779 259.456C585.321 259.104 585.907 258.929 586.537 258.929C587.567 258.929 588.368 259.268 588.939 259.947C589.511 260.625 589.796 261.597 589.796 262.862V263.426H584.428C584.447 264.207 584.674 264.839 585.109 265.323C585.548 265.801 586.105 266.041 586.779 266.041C587.257 266.041 587.663 265.943 587.995 265.748C588.327 265.552 588.617 265.293 588.866 264.971L589.694 265.616C589.03 266.636 588.034 267.146 586.706 267.146ZM586.537 260.042C585.99 260.042 585.531 260.242 585.16 260.643C584.789 261.038 584.56 261.595 584.472 262.312H588.441V262.21C588.402 261.521 588.217 260.989 587.885 260.613C587.553 260.232 587.104 260.042 586.537 260.042ZM592.96 263.997C592.97 263.416 593.036 262.957 593.158 262.62C593.28 262.283 593.529 261.91 593.905 261.5L594.865 260.511C595.275 260.047 595.48 259.549 595.48 259.017C595.48 258.504 595.346 258.104 595.077 257.815C594.809 257.522 594.418 257.376 593.905 257.376C593.407 257.376 593.007 257.508 592.704 257.771C592.401 258.035 592.25 258.389 592.25 258.833H590.895C590.905 258.042 591.186 257.405 591.737 256.922C592.294 256.434 593.017 256.189 593.905 256.189C594.828 256.189 595.546 256.438 596.059 256.937C596.576 257.43 596.835 258.108 596.835 258.973C596.835 259.827 596.439 260.669 595.648 261.5L594.85 262.291C594.494 262.686 594.315 263.255 594.315 263.997H592.96ZM592.902 266.319C592.902 266.099 592.968 265.916 593.1 265.77C593.236 265.618 593.437 265.542 593.7 265.542C593.964 265.542 594.164 265.618 594.301 265.77C594.438 265.916 594.506 266.099 594.506 266.319C594.506 266.539 594.438 266.722 594.301 266.868C594.164 267.01 593.964 267.081 593.7 267.081C593.437 267.081 593.236 267.01 593.1 266.868C592.968 266.722 592.902 266.539 592.902 266.319Z" fill="white"/>
<rect x="256" y="292" width="310" height="41" rx="15" fill="#260C40"/>
<path d="M266.952 318V307.336H270.688C271.981 307.336 272.963 307.585 273.632 308.083C274.301 308.576 274.635 309.301 274.635 310.258C274.635 310.781 274.501 311.242 274.232 311.643C273.964 312.038 273.59 312.329 273.112 312.514C273.659 312.651 274.088 312.927 274.401 313.342C274.718 313.757 274.877 314.265 274.877 314.865C274.877 315.891 274.55 316.667 273.896 317.194C273.241 317.722 272.309 317.99 271.098 318H266.952ZM269.149 313.356V316.235H271.032C271.549 316.235 271.952 316.113 272.24 315.869C272.533 315.62 272.68 315.278 272.68 314.843C272.68 313.867 272.174 313.371 271.164 313.356H269.149ZM269.149 311.804H270.775C271.884 311.784 272.438 311.342 272.438 310.478C272.438 309.995 272.296 309.648 272.013 309.438C271.735 309.223 271.293 309.116 270.688 309.116H269.149V311.804ZM276.063 313.964C276.063 313.178 276.215 312.478 276.518 311.862C276.82 311.247 277.255 310.771 277.821 310.434C278.393 310.097 279.054 309.929 279.806 309.929C280.875 309.929 281.747 310.256 282.421 310.91C283.1 311.564 283.478 312.453 283.556 313.576L283.571 314.118C283.571 315.334 283.231 316.311 282.553 317.048C281.874 317.78 280.963 318.146 279.821 318.146C278.678 318.146 277.765 317.78 277.082 317.048C276.403 316.315 276.063 315.319 276.063 314.06V313.964ZM278.18 314.118C278.18 314.87 278.322 315.446 278.605 315.847C278.888 316.242 279.293 316.44 279.821 316.44C280.333 316.44 280.734 316.245 281.022 315.854C281.31 315.458 281.454 314.829 281.454 313.964C281.454 313.227 281.31 312.656 281.022 312.25C280.734 311.845 280.329 311.643 279.806 311.643C279.289 311.643 278.888 311.845 278.605 312.25C278.322 312.651 278.18 313.273 278.18 314.118ZM287.409 308.127V310.075H288.764V311.628H287.409V315.583C287.409 315.876 287.465 316.086 287.577 316.213C287.689 316.34 287.904 316.403 288.222 316.403C288.456 316.403 288.664 316.386 288.844 316.352V317.956C288.429 318.083 288.002 318.146 287.562 318.146C286.078 318.146 285.321 317.397 285.292 315.898V311.628H284.135V310.075H285.292V308.127H287.409ZM290.045 316.96C290.045 316.623 290.158 316.35 290.382 316.14C290.612 315.93 290.897 315.825 291.239 315.825C291.586 315.825 291.872 315.93 292.096 316.14C292.326 316.35 292.44 316.623 292.44 316.96C292.44 317.292 292.328 317.563 292.104 317.773C291.879 317.978 291.591 318.081 291.239 318.081C290.893 318.081 290.607 317.978 290.382 317.773C290.158 317.563 290.045 317.292 290.045 316.96ZM290.045 310.961C290.045 310.625 290.158 310.351 290.382 310.141C290.612 309.931 290.897 309.826 291.239 309.826C291.586 309.826 291.872 309.931 292.096 310.141C292.326 310.351 292.44 310.625 292.44 310.961C292.44 311.293 292.328 311.564 292.104 311.774C291.879 311.979 291.591 312.082 291.239 312.082C290.893 312.082 290.607 311.979 290.382 311.774C290.158 311.564 290.045 311.293 290.045 310.961ZM305.397 308.493H301.969V318H300.57V308.493H297.15V307.336H305.397V308.493ZM308.122 311.035C308.722 310.297 309.503 309.929 310.465 309.929C312.14 309.929 312.985 310.874 313 312.763V318H311.645V312.756C311.64 312.185 311.508 311.762 311.249 311.489C310.995 311.215 310.597 311.079 310.055 311.079C309.616 311.079 309.23 311.196 308.898 311.43C308.566 311.665 308.307 311.972 308.122 312.353V318H306.767V306.75H308.122V311.035ZM318.317 318.146C317.243 318.146 316.369 317.795 315.695 317.092C315.021 316.384 314.684 315.439 314.684 314.257V314.008C314.684 313.222 314.833 312.521 315.131 311.906C315.434 311.286 315.854 310.803 316.391 310.456C316.933 310.104 317.519 309.929 318.148 309.929C319.179 309.929 319.979 310.268 320.551 310.947C321.122 311.625 321.408 312.597 321.408 313.862V314.426H316.039C316.059 315.207 316.286 315.839 316.72 316.323C317.16 316.801 317.716 317.041 318.39 317.041C318.869 317.041 319.274 316.943 319.606 316.748C319.938 316.552 320.229 316.293 320.478 315.971L321.305 316.616C320.641 317.636 319.645 318.146 318.317 318.146ZM318.148 311.042C317.602 311.042 317.143 311.242 316.771 311.643C316.4 312.038 316.171 312.595 316.083 313.312H320.053V313.21C320.014 312.521 319.828 311.989 319.496 311.613C319.164 311.232 318.715 311.042 318.148 311.042ZM327.978 310.075L328.014 310.954C328.595 310.271 329.379 309.929 330.365 309.929C331.474 309.929 332.228 310.354 332.628 311.203C332.892 310.822 333.234 310.515 333.654 310.28C334.079 310.046 334.579 309.929 335.155 309.929C336.894 309.929 337.777 310.849 337.807 312.69V318H336.452V312.771C336.452 312.204 336.322 311.782 336.063 311.503C335.805 311.22 335.37 311.079 334.76 311.079C334.257 311.079 333.839 311.23 333.507 311.533C333.175 311.831 332.982 312.233 332.929 312.741V318H331.566V312.807C331.566 311.655 331.002 311.079 329.875 311.079C328.986 311.079 328.378 311.457 328.051 312.214V318H326.696V310.075H327.978ZM343.146 318.146C342.072 318.146 341.198 317.795 340.524 317.092C339.85 316.384 339.513 315.439 339.513 314.257V314.008C339.513 313.222 339.662 312.521 339.96 311.906C340.263 311.286 340.683 310.803 341.22 310.456C341.762 310.104 342.348 309.929 342.978 309.929C344.008 309.929 344.809 310.268 345.38 310.947C345.951 311.625 346.237 312.597 346.237 313.862V314.426H340.868C340.888 315.207 341.115 315.839 341.549 316.323C341.989 316.801 342.545 317.041 343.219 317.041C343.698 317.041 344.103 316.943 344.435 316.748C344.767 316.552 345.058 316.293 345.307 315.971L346.134 316.616C345.47 317.636 344.474 318.146 343.146 318.146ZM342.978 311.042C342.431 311.042 341.972 311.242 341.601 311.643C341.229 312.038 341 312.595 340.912 313.312H344.882V313.21C344.843 312.521 344.657 311.989 344.325 311.613C343.993 311.232 343.544 311.042 342.978 311.042ZM352.704 318C352.626 317.844 352.562 317.565 352.514 317.165C351.884 317.819 351.132 318.146 350.258 318.146C349.477 318.146 348.834 317.927 348.332 317.487C347.833 317.043 347.584 316.481 347.584 315.803C347.584 314.978 347.897 314.338 348.522 313.884C349.152 313.425 350.036 313.195 351.173 313.195H352.492V312.573C352.492 312.099 352.35 311.723 352.067 311.445C351.784 311.162 351.366 311.02 350.814 311.02C350.331 311.02 349.926 311.142 349.599 311.386C349.271 311.63 349.108 311.926 349.108 312.272H347.746C347.746 311.877 347.885 311.496 348.163 311.13C348.446 310.759 348.827 310.466 349.306 310.251C349.789 310.036 350.319 309.929 350.895 309.929C351.808 309.929 352.523 310.158 353.041 310.617C353.559 311.071 353.827 311.699 353.847 312.5V316.147C353.847 316.875 353.939 317.453 354.125 317.883V318H352.704ZM350.456 316.967C350.88 316.967 351.283 316.857 351.664 316.638C352.045 316.418 352.321 316.132 352.492 315.781V314.155H351.43C349.77 314.155 348.939 314.641 348.939 315.612C348.939 316.037 349.081 316.369 349.364 316.608C349.647 316.848 350.011 316.967 350.456 316.967ZM357.252 310.075L357.296 311.071C357.902 310.31 358.693 309.929 359.669 309.929C361.344 309.929 362.189 310.874 362.204 312.763V318H360.849V312.756C360.844 312.185 360.712 311.762 360.453 311.489C360.199 311.215 359.801 311.079 359.259 311.079C358.82 311.079 358.434 311.196 358.102 311.43C357.77 311.665 357.511 311.972 357.326 312.353V318H355.971V310.075H357.252ZM365.719 318H364.364V310.075H365.719V318ZM364.254 307.973C364.254 307.753 364.32 307.568 364.452 307.417C364.589 307.265 364.789 307.189 365.053 307.189C365.316 307.189 365.517 307.265 365.653 307.417C365.79 307.568 365.858 307.753 365.858 307.973C365.858 308.193 365.79 308.376 365.653 308.522C365.517 308.669 365.316 308.742 365.053 308.742C364.789 308.742 364.589 308.669 364.452 308.522C364.32 308.376 364.254 308.193 364.254 307.973ZM369.176 310.075L369.22 311.071C369.826 310.31 370.617 309.929 371.593 309.929C373.268 309.929 374.113 310.874 374.127 312.763V318H372.772V312.756C372.768 312.185 372.636 311.762 372.377 311.489C372.123 311.215 371.725 311.079 371.183 311.079C370.744 311.079 370.358 311.196 370.026 311.43C369.694 311.665 369.435 311.972 369.25 312.353V318H367.895V310.075H369.176ZM375.849 313.972C375.849 312.736 376.134 311.755 376.706 311.027C377.277 310.295 378.034 309.929 378.976 309.929C379.943 309.929 380.697 310.271 381.239 310.954L381.305 310.075H382.543V317.81C382.543 318.835 382.238 319.643 381.627 320.234C381.022 320.825 380.207 321.12 379.181 321.12C378.61 321.12 378.051 320.998 377.504 320.754C376.957 320.51 376.54 320.175 376.251 319.75L376.955 318.938C377.536 319.655 378.246 320.014 379.086 320.014C379.745 320.014 380.258 319.829 380.624 319.458C380.995 319.086 381.181 318.564 381.181 317.89V317.209C380.639 317.834 379.899 318.146 378.961 318.146C378.034 318.146 377.282 317.773 376.706 317.026C376.134 316.279 375.849 315.261 375.849 313.972ZM377.211 314.125C377.211 315.019 377.394 315.722 377.76 316.235C378.126 316.743 378.639 316.997 379.298 316.997C380.153 316.997 380.78 316.608 381.181 315.832V312.214C380.766 311.457 380.143 311.079 379.313 311.079C378.654 311.079 378.139 311.335 377.768 311.848C377.396 312.36 377.211 313.12 377.211 314.125ZM387.956 313.964C387.956 313.188 388.107 312.49 388.41 311.87C388.717 311.25 389.142 310.771 389.684 310.434C390.231 310.097 390.854 309.929 391.552 309.929C392.631 309.929 393.502 310.302 394.167 311.049C394.835 311.796 395.17 312.79 395.17 314.03V314.125C395.17 314.897 395.021 315.59 394.723 316.206C394.43 316.816 394.008 317.292 393.456 317.634C392.909 317.976 392.279 318.146 391.566 318.146C390.492 318.146 389.621 317.773 388.952 317.026C388.288 316.279 387.956 315.29 387.956 314.06V313.964ZM389.318 314.125C389.318 315.004 389.521 315.71 389.926 316.242C390.336 316.774 390.883 317.041 391.566 317.041C392.255 317.041 392.802 316.772 393.207 316.235C393.612 315.693 393.815 314.936 393.815 313.964C393.815 313.095 393.607 312.392 393.192 311.855C392.782 311.313 392.235 311.042 391.552 311.042C390.883 311.042 390.343 311.308 389.933 311.84C389.523 312.373 389.318 313.134 389.318 314.125ZM397.536 318V311.123H396.283V310.075H397.536V309.262C397.536 308.413 397.763 307.756 398.217 307.292C398.671 306.828 399.313 306.596 400.143 306.596C400.456 306.596 400.766 306.638 401.073 306.721L401 307.819C400.771 307.775 400.526 307.753 400.268 307.753C399.828 307.753 399.489 307.883 399.25 308.142C399.01 308.396 398.891 308.762 398.891 309.24V310.075H400.583V311.123H398.891V318H397.536ZM407.277 318H405.922V306.75H407.277V318ZM410.924 318H409.569V310.075H410.924V318ZM409.459 307.973C409.459 307.753 409.525 307.568 409.657 307.417C409.794 307.265 409.994 307.189 410.258 307.189C410.521 307.189 410.722 307.265 410.858 307.417C410.995 307.568 411.063 307.753 411.063 307.973C411.063 308.193 410.995 308.376 410.858 308.522C410.722 308.669 410.521 308.742 410.258 308.742C409.994 308.742 409.794 308.669 409.657 308.522C409.525 308.376 409.459 308.193 409.459 307.973ZM415.714 316.162L417.677 310.075H419.062L416.22 318H415.187L412.316 310.075H413.7L415.714 316.162ZM423.551 318.146C422.477 318.146 421.603 317.795 420.929 317.092C420.255 316.384 419.918 315.439 419.918 314.257V314.008C419.918 313.222 420.067 312.521 420.365 311.906C420.668 311.286 421.088 310.803 421.625 310.456C422.167 310.104 422.753 309.929 423.383 309.929C424.413 309.929 425.214 310.268 425.785 310.947C426.356 311.625 426.642 312.597 426.642 313.862V314.426H421.273C421.293 315.207 421.52 315.839 421.955 316.323C422.394 316.801 422.951 317.041 423.625 317.041C424.103 317.041 424.508 316.943 424.84 316.748C425.172 316.552 425.463 316.293 425.712 315.971L426.54 316.616C425.875 317.636 424.879 318.146 423.551 318.146ZM423.383 311.042C422.836 311.042 422.377 311.242 422.006 311.643C421.635 312.038 421.405 312.595 421.317 313.312H425.287V313.21C425.248 312.521 425.062 311.989 424.73 311.613C424.398 311.232 423.949 311.042 423.383 311.042ZM433.41 318H432.055V310.075H433.41V318ZM431.945 307.973C431.945 307.753 432.011 307.568 432.143 307.417C432.279 307.265 432.479 307.189 432.743 307.189C433.007 307.189 433.207 307.265 433.344 307.417C433.48 307.568 433.549 307.753 433.549 307.973C433.549 308.193 433.48 308.376 433.344 308.522C433.207 308.669 433.007 308.742 432.743 308.742C432.479 308.742 432.279 308.669 432.143 308.522C432.011 308.376 431.945 308.193 431.945 307.973ZM440.199 315.898C440.199 315.532 440.06 315.249 439.782 315.048C439.508 314.843 439.027 314.667 438.339 314.521C437.655 314.375 437.111 314.199 436.706 313.994C436.305 313.789 436.007 313.544 435.812 313.261C435.622 312.978 435.526 312.641 435.526 312.25C435.526 311.601 435.8 311.052 436.347 310.603C436.898 310.153 437.602 309.929 438.456 309.929C439.354 309.929 440.082 310.161 440.639 310.625C441.2 311.088 441.481 311.682 441.481 312.404H440.119C440.119 312.033 439.96 311.713 439.643 311.445C439.33 311.176 438.935 311.042 438.456 311.042C437.963 311.042 437.577 311.149 437.299 311.364C437.021 311.579 436.881 311.86 436.881 312.207C436.881 312.534 437.011 312.78 437.27 312.946C437.528 313.112 437.995 313.271 438.668 313.422C439.347 313.574 439.896 313.754 440.316 313.964C440.736 314.174 441.046 314.428 441.247 314.726C441.452 315.019 441.554 315.378 441.554 315.803C441.554 316.511 441.271 317.08 440.705 317.509C440.138 317.934 439.403 318.146 438.5 318.146C437.865 318.146 437.304 318.034 436.815 317.81C436.327 317.585 435.944 317.272 435.666 316.872C435.392 316.467 435.255 316.03 435.255 315.561H436.61C436.635 316.015 436.815 316.376 437.152 316.645C437.494 316.909 437.943 317.041 438.5 317.041C439.013 317.041 439.423 316.938 439.73 316.733C440.043 316.523 440.199 316.245 440.199 315.898ZM454.057 316.132L455.58 310.075H456.935L454.628 318H453.529L451.603 311.994L449.728 318H448.629L446.33 310.075H447.677L449.237 316.008L451.083 310.075H452.174L454.057 316.132ZM463.212 318C463.134 317.844 463.07 317.565 463.021 317.165C462.392 317.819 461.64 318.146 460.766 318.146C459.984 318.146 459.342 317.927 458.839 317.487C458.341 317.043 458.092 316.481 458.092 315.803C458.092 314.978 458.405 314.338 459.03 313.884C459.66 313.425 460.543 313.195 461.681 313.195H463V312.573C463 312.099 462.858 311.723 462.575 311.445C462.292 311.162 461.874 311.02 461.322 311.02C460.839 311.02 460.434 311.142 460.106 311.386C459.779 311.63 459.616 311.926 459.616 312.272H458.253C458.253 311.877 458.393 311.496 458.671 311.13C458.954 310.759 459.335 310.466 459.813 310.251C460.297 310.036 460.827 309.929 461.403 309.929C462.316 309.929 463.031 310.158 463.549 310.617C464.066 311.071 464.335 311.699 464.354 312.5V316.147C464.354 316.875 464.447 317.453 464.633 317.883V318H463.212ZM460.963 316.967C461.388 316.967 461.791 316.857 462.172 316.638C462.553 316.418 462.829 316.132 463 315.781V314.155H461.938C460.277 314.155 459.447 314.641 459.447 315.612C459.447 316.037 459.589 316.369 459.872 316.608C460.155 316.848 460.519 316.967 460.963 316.967ZM468.317 308.156V310.075H469.796V311.123H468.317V316.037C468.317 316.354 468.383 316.594 468.515 316.755C468.646 316.911 468.871 316.989 469.188 316.989C469.345 316.989 469.56 316.96 469.833 316.901V318C469.477 318.098 469.13 318.146 468.793 318.146C468.188 318.146 467.731 317.963 467.423 317.597C467.116 317.231 466.962 316.711 466.962 316.037V311.123H465.519V310.075H466.962V308.156H468.317ZM474.564 317.041C475.048 317.041 475.47 316.894 475.832 316.601C476.193 316.308 476.393 315.942 476.432 315.502H477.714C477.689 315.957 477.533 316.389 477.245 316.799C476.957 317.209 476.571 317.536 476.088 317.78C475.609 318.024 475.102 318.146 474.564 318.146C473.485 318.146 472.626 317.788 471.986 317.07C471.352 316.347 471.034 315.361 471.034 314.111V313.884C471.034 313.112 471.176 312.426 471.459 311.826C471.742 311.225 472.147 310.759 472.675 310.427C473.207 310.095 473.834 309.929 474.557 309.929C475.446 309.929 476.183 310.195 476.769 310.727C477.36 311.259 477.675 311.95 477.714 312.8H476.432C476.393 312.287 476.198 311.867 475.846 311.54C475.5 311.208 475.07 311.042 474.557 311.042C473.869 311.042 473.334 311.291 472.953 311.789C472.577 312.282 472.389 312.998 472.389 313.935V314.191C472.389 315.104 472.577 315.808 472.953 316.301C473.329 316.794 473.866 317.041 474.564 317.041ZM480.592 311.035C481.193 310.297 481.974 309.929 482.936 309.929C484.611 309.929 485.456 310.874 485.47 312.763V318H484.115V312.756C484.11 312.185 483.979 311.762 483.72 311.489C483.466 311.215 483.068 311.079 482.526 311.079C482.086 311.079 481.701 311.196 481.369 311.43C481.037 311.665 480.778 311.972 480.592 312.353V318H479.237V306.75H480.592V311.035ZM488.971 318H487.616V310.075H488.971V318ZM487.506 307.973C487.506 307.753 487.572 307.568 487.704 307.417C487.841 307.265 488.041 307.189 488.305 307.189C488.568 307.189 488.769 307.265 488.905 307.417C489.042 307.568 489.11 307.753 489.11 307.973C489.11 308.193 489.042 308.376 488.905 308.522C488.769 308.669 488.568 308.742 488.305 308.742C488.041 308.742 487.841 308.669 487.704 308.522C487.572 308.376 487.506 308.193 487.506 307.973ZM492.428 310.075L492.472 311.071C493.078 310.31 493.869 309.929 494.845 309.929C496.52 309.929 497.365 310.874 497.379 312.763V318H496.024V312.756C496.02 312.185 495.888 311.762 495.629 311.489C495.375 311.215 494.977 311.079 494.435 311.079C493.996 311.079 493.61 311.196 493.278 311.43C492.946 311.665 492.687 311.972 492.501 312.353V318H491.146V310.075H492.428ZM499.101 313.972C499.101 312.736 499.386 311.755 499.958 311.027C500.529 310.295 501.286 309.929 502.228 309.929C503.195 309.929 503.949 310.271 504.491 310.954L504.557 310.075H505.795V317.81C505.795 318.835 505.49 319.643 504.879 320.234C504.274 320.825 503.458 321.12 502.433 321.12C501.862 321.12 501.303 320.998 500.756 320.754C500.209 320.51 499.792 320.175 499.503 319.75L500.207 318.938C500.788 319.655 501.498 320.014 502.338 320.014C502.997 320.014 503.51 319.829 503.876 319.458C504.247 319.086 504.433 318.564 504.433 317.89V317.209C503.891 317.834 503.151 318.146 502.213 318.146C501.286 318.146 500.534 317.773 499.958 317.026C499.386 316.279 499.101 315.261 499.101 313.972ZM500.463 314.125C500.463 315.019 500.646 315.722 501.012 316.235C501.378 316.743 501.891 316.997 502.55 316.997C503.405 316.997 504.032 316.608 504.433 315.832V312.214C504.018 311.457 503.395 311.079 502.565 311.079C501.906 311.079 501.391 311.335 501.02 311.848C500.648 312.36 500.463 313.12 500.463 314.125ZM513.405 308.156V310.075H514.884V311.123H513.405V316.037C513.405 316.354 513.471 316.594 513.603 316.755C513.734 316.911 513.959 316.989 514.276 316.989C514.433 316.989 514.647 316.96 514.921 316.901V318C514.564 318.098 514.218 318.146 513.881 318.146C513.275 318.146 512.819 317.963 512.511 317.597C512.204 317.231 512.05 316.711 512.05 316.037V311.123H510.607V310.075H512.05V308.156H513.405ZM523.49 316.132L525.014 310.075H526.369L524.062 318H522.963L521.037 311.994L519.162 318H518.063L515.763 310.075H517.111L518.671 316.008L520.517 310.075H521.608L523.49 316.132ZM529.225 318H527.87V310.075H529.225V318ZM527.76 307.973C527.76 307.753 527.826 307.568 527.958 307.417C528.095 307.265 528.295 307.189 528.559 307.189C528.822 307.189 529.022 307.265 529.159 307.417C529.296 307.568 529.364 307.753 529.364 307.973C529.364 308.193 529.296 308.376 529.159 308.522C529.022 308.669 528.822 308.742 528.559 308.742C528.295 308.742 528.095 308.669 527.958 308.522C527.826 308.376 527.76 308.193 527.76 307.973ZM533.239 308.156V310.075H534.718V311.123H533.239V316.037C533.239 316.354 533.305 316.594 533.437 316.755C533.568 316.911 533.793 316.989 534.11 316.989C534.267 316.989 534.481 316.96 534.755 316.901V318C534.398 318.098 534.052 318.146 533.715 318.146C533.109 318.146 532.653 317.963 532.345 317.597C532.038 317.231 531.884 316.711 531.884 316.037V311.123H530.441V310.075H531.884V308.156H533.239ZM539.486 317.041C539.97 317.041 540.392 316.894 540.753 316.601C541.115 316.308 541.315 315.942 541.354 315.502H542.636C542.611 315.957 542.455 316.389 542.167 316.799C541.879 317.209 541.493 317.536 541.01 317.78C540.531 318.024 540.023 318.146 539.486 318.146C538.407 318.146 537.548 317.788 536.908 317.07C536.273 316.347 535.956 315.361 535.956 314.111V313.884C535.956 313.112 536.098 312.426 536.381 311.826C536.664 311.225 537.069 310.759 537.597 310.427C538.129 310.095 538.756 309.929 539.479 309.929C540.368 309.929 541.105 310.195 541.691 310.727C542.282 311.259 542.597 311.95 542.636 312.8H541.354C541.315 312.287 541.12 311.867 540.768 311.54C540.421 311.208 539.992 311.042 539.479 311.042C538.791 311.042 538.256 311.291 537.875 311.789C537.499 312.282 537.311 312.998 537.311 313.935V314.191C537.311 315.104 537.499 315.808 537.875 316.301C538.251 316.794 538.788 317.041 539.486 317.041ZM545.514 311.035C546.115 310.297 546.896 309.929 547.858 309.929C549.533 309.929 550.377 310.874 550.392 312.763V318H549.037V312.756C549.032 312.185 548.9 311.762 548.642 311.489C548.388 311.215 547.99 311.079 547.448 311.079C547.008 311.079 546.623 311.196 546.291 311.43C545.958 311.665 545.7 311.972 545.514 312.353V318H544.159V306.75H545.514V311.035ZM553.937 314.99H552.714L552.619 307.336H554.04L553.937 314.99ZM552.567 317.319C552.567 317.099 552.633 316.916 552.765 316.77C552.902 316.618 553.102 316.542 553.366 316.542C553.629 316.542 553.83 316.618 553.966 316.77C554.103 316.916 554.171 317.099 554.171 317.319C554.171 317.539 554.103 317.722 553.966 317.868C553.83 318.01 553.629 318.081 553.366 318.081C553.102 318.081 552.902 318.01 552.765 317.868C552.633 317.722 552.567 317.539 552.567 317.319Z" fill="white"/>
</svg>
